<svg width="55" height="54" viewBox="0 0 55 54" fill="none" xmlns="http://www.w3.org/2000/svg">
<g clip-path="url(#clip0_341_6107)">
<path d="M28.4888 26.828C29.3055 26.8432 30.1555 26.8811 31.0388 26.9417C31.9388 27.0023 32.8222 27.1235 33.6888 27.3053L33.5388 28.9189C32.8222 28.8886 32.0138 28.8659 31.1138 28.8508C30.2305 28.8356 29.3805 28.828 28.5638 28.828C27.9638 28.828 27.4555 28.8432 27.0388 28.8735C26.6222 28.9038 26.2805 28.9871 26.0138 29.1235C25.7472 29.2598 25.5555 29.4795 25.4388 29.7826C25.3222 30.0856 25.2638 30.5023 25.2638 31.0326C25.2638 31.8356 25.4305 32.4038 25.7638 32.7371C26.0972 33.0553 26.6388 33.2977 27.3888 33.4644L30.8388 34.3053C32.1722 34.6083 33.0888 35.1235 33.5888 35.8508C34.1055 36.5629 34.3638 37.525 34.3638 38.7371C34.3638 39.6462 34.2472 40.3811 34.0138 40.9417C33.7972 41.5023 33.4472 41.9341 32.9638 42.2371C32.4972 42.5401 31.8888 42.7523 31.1388 42.8735C30.3888 42.9947 29.4972 43.0553 28.4638 43.0553C27.8972 43.0553 27.1472 43.0326 26.2138 42.9871C25.2805 42.9417 24.2055 42.8129 22.9888 42.6008L23.1638 40.8962C24.1471 40.9114 24.9472 40.9341 25.5638 40.9644C26.1805 40.9795 26.7138 40.9871 27.1638 40.9871C27.6138 40.9871 28.0638 40.9871 28.5138 40.9871C29.3472 40.9871 30.0055 40.9341 30.4888 40.828C30.9722 40.7068 31.3138 40.4871 31.5138 40.1689C31.7138 39.8356 31.8138 39.3508 31.8138 38.7144C31.8138 38.1538 31.7388 37.7144 31.5888 37.3962C31.4555 37.078 31.2388 36.8432 30.9388 36.6917C30.6388 36.525 30.2388 36.3886 29.7388 36.2826L26.2138 35.3962C24.9472 35.078 24.0554 34.5629 23.5388 33.8508C23.0221 33.1386 22.7638 32.1917 22.7638 31.0098C22.7638 30.1008 22.8721 29.3659 23.0888 28.8053C23.3221 28.2447 23.6721 27.828 24.1388 27.5553C24.6055 27.2674 25.1972 27.078 25.9138 26.9871C26.6472 26.8811 27.5055 26.828 28.4888 26.828ZM27.9138 34.7371L29.0638 34.7826L28.1388 45.6235H26.9638L27.9138 34.7371ZM30.1138 24.6462L29.2638 34.7826L28.0888 34.7371L28.9888 24.6462H30.1138Z" fill="#3AA15B"/>
<path d="M44.4325 18.7968L45.5558 44.308C45.7072 47.7474 42.681 50.6111 38.8945 50.6111H16.1072C12.3201 50.6111 9.29356 47.7465 9.44597 44.3065L10.5762 18.7954C10.6517 17.0922 11.7689 15.5706 13.4701 14.854L26.099 9.53444C26.9877 9.16013 28.0123 9.16002 28.9012 9.53417L41.5375 14.854C43.2397 15.5706 44.3573 17.0929 44.4325 18.7968Z" stroke="#3AA15B" stroke-width="3" stroke-linecap="round" stroke-linejoin="round"/>
<mask id="mask0_341_6107" style="mask-type:luminance" maskUnits="userSpaceOnUse" x="19" y="2" width="16" height="18">
<path d="M31.8873 16.8851C32.1815 17.31 32.1125 17.872 31.6718 18.1747C30.5285 18.9598 29.219 19.4021 27.87 19.45C26.2277 19.5083 24.6113 18.9794 23.2535 17.9392C21.8957 16.8992 20.8664 15.4016 20.3138 13.6621C19.7613 11.9226 19.7139 10.0308 20.1786 8.25914C20.6432 6.48743 21.5959 4.92715 22.8996 3.80286C24.2032 2.67858 25.7905 2.04827 27.4332 2.00266C29.0757 1.95705 30.6888 2.4985 32.0403 3.54906C33.1815 4.43623 34.0865 5.64784 34.6667 7.05337C34.852 7.50218 34.5922 7.99087 34.108 8.18099C33.524 8.41037 32.8567 8.11564 32.5935 7.58905C32.1713 6.74452 31.5822 6.01411 30.8663 5.45759C29.8742 4.68637 28.69 4.28888 27.4842 4.32236C26.2783 4.35583 25.113 4.81856 24.156 5.64393C23.1989 6.46927 22.4995 7.6147 22.1584 8.91533C21.8173 10.216 21.8521 11.6047 22.2577 12.8818C22.6633 14.1588 23.4189 15.2582 24.4157 16.0217C25.4125 16.7853 26.5992 17.1736 27.8048 17.1308C28.561 17.1039 29.3002 16.9083 29.9812 16.5607C30.6252 16.2319 31.4938 16.3167 31.8873 16.8851Z" fill="white"/>
</mask>
<g mask="url(#mask0_341_6107)">
<path d="M33.1369 11.9595C33.4168 12.2034 33.3512 12.5246 32.9319 12.6984C31.8441 13.1489 30.5983 13.4016 29.3148 13.429C27.7522 13.4625 25.8924 12.3706 24.6005 11.7737C23.5697 8.42854 20.1668 10.1411 19.6411 9.14283C19.1154 8.14455 21.5549 8.03416 21.997 7.01741C22.4391 6.00066 23.3455 5.10948 24.5859 4.46427C25.8261 3.81906 27.3363 3.45904 28.8992 3.43287C30.4619 3.4067 31.9967 3.71595 33.2825 4.31885C34.3682 4.82798 35.2293 5.51997 35.7813 6.32658C35.9576 6.58415 34.5696 9.14283 35.3553 6.28569C34.7996 6.41732 33.1823 10.8736 32.9319 10.5714C32.5303 10.0867 32.8466 5.73169 32.1656 5.41231C31.2216 4.96972 30.095 4.74269 28.9477 4.7619C27.8005 4.78111 26.6917 5.04541 25.7812 5.51907C24.8706 5.99272 24.2052 6.64695 23.8807 7.39337C23.5561 8.13979 23.5892 8.93301 23.9751 9.66587C24.3611 10.3987 25.08 11.0267 26.0283 11.4648C26.9767 11.903 28.1057 12.1249 29.2528 12.1003C29.9722 12.0849 30.6755 11.9731 31.3234 11.7737C31.9361 11.585 32.7626 11.6333 33.1369 11.9595Z" stroke="#3AA15B" stroke-width="3"/>
</g>
</g>
<defs>
<clipPath id="clip0_341_6107">
<rect width="40" height="50" fill="white" transform="translate(7.5 2)"/>
</clipPath>
</defs>
</svg>
