<?xml version="1.0" encoding="UTF-8"?>
<svg id="Layer_1" data-name="Layer 1" xmlns="http://www.w3.org/2000/svg" width="47.59156960666769" height="49" viewBox="0 0 47.59156960666769 49">
  <defs>
    <style>
      .cls-1 {
        fill: none;
        stroke: #1a73e8;
        stroke-miterlimit: 10;
        stroke-width: 1px;
      }
    </style>
  </defs>
  <path class="cls-1" d="m4.440807688930363.5h16.417910028549159c1.107909563415259,0,2.007391562552584.899481999137326,2.007391562552584,2.007391562552584v42.213658735894569H2.433416126377779V2.507391562552584c0-1.107909563415258.899481999137326-2.007391562552584,2.007391562552584-2.007391562552584Z"/>
  <rect class="cls-1" x="5.325145938992137" y="4.802992358487245" width="14.64923352842743" height="14.64923352842743" rx="1.138216485758676" ry="1.138216485758676"/>
  <g>
    <line class="cls-1" x1="7.91292108559901" y1="12.127609122695503" x2="17.386604320812694" y2="12.127609122695503"/>
    <path class="cls-1" d="m12.81630624664831,7.390767505075928l4.452534005231428,4.452534005229609c.15701875857485.157018758576669.15701875857485.411596466195988,0,.568615224772657l-4.452534005231428,4.452534005229609"/>
  </g>
  <line class="cls-1" x1="2.433416126377779" y1="31.077284224875257" x2="22.866109280032106" y2="31.077284224875257"/>
  <line class="cls-1" x1="6.355174973610701" y1="34.488225743270959" x2="18.944350432802821" y2="34.488225743270959"/>
  <line class="cls-1" x1="6.355174973610701" y1="37.899167261661205" x2="18.944350432802821" y2="37.899167261661205"/>
  <line class="cls-1" x1="6.355174973610701" y1="41.310108780055089" x2="18.944350432802821" y2="41.310108780055089"/>
  <path class="cls-1" d="m1.532619976582282,44.721050298447153h22.23428545324532c.569918479668402,0,1.032619976582282.46270149691388,1.032619976582282,1.032619976582282v2.746329724970565H.5v-2.746329724970565c0-.569918479668402.462701496913878-1.032619976582282,1.032619976582282-1.032619976582282Z"/>
  <path class="cls-1" d="m22.866109280032106,9.062705149643079c2.438943688239306,0,4.416098197727479,1.977154509489992,4.416098197727479,4.416098197727479,0,2.438943688219297-1.977154509488173,4.416098197729298-4.416098197727479,4.416098197729298"/>
  <path class="cls-1" d="m27.03073424475042,14.943678592202559h18.596612504496079c.80875119259872,0,1.464222857421191-.655471664822471,1.464222857421191-1.464222857419372s-.655471664822471-1.464222857421191-1.464222857421191-1.464222857421191h-18.597452230858835"/>
  <path class="cls-1" d="m24.775200537176715,17.458018457589787l13.151866777314353,13.150424505945921c.286390696632225.286390696630406.659505336607253.429586044945609,1.034636812473764.429586044945609.375131475870148,0,.748246115845177-.143195348315203,1.034636812475583-.429586044945609.572781393260811-.57076455736933.572781393260811-1.498509067581836,0-2.069273624951165l-13.15186185188395-13.149911115933719"/>
</svg>