<?xml version="1.0" encoding="UTF-8"?>
<svg id="Layer_1" data-name="Layer 1" xmlns="http://www.w3.org/2000/svg" width="38.860869501982961" height="49" viewBox="0 0 38.860869501982961 49">
  <defs>
    <style>
      .cls-1 {
        fill: none;
        stroke: #1a73e8;
        stroke-miterlimit: 10;
        stroke-width: 1px;
      }
    </style>
  </defs>
  <rect class="cls-1" x=".5" y="15.477244245110342" width="37.860869501982961" height="33.022755754889658" rx="3.433553871576805" ry="3.433553871576805" transform="translate(38.860869501982961 63.977244245110342) rotate(180)"/>
  <path class="cls-1" d="m9.047902740363497,15.477244245110342v-4.59325869226268C9.047902740363497,5.158613009487453,13.705710040254417.5,19.430276873976254.5c5.725372543323829,0,10.383179843218386,4.658613009487453,10.383179843218386,10.383985552847662v4.59325869226268"/>
  <path class="cls-1" d="m25.166172030394591,15.477244245110342v-3.728394765359553c0-3.163305793534164-2.573230273745139-5.736536067262932-5.735840223500418-5.736536067262932-3.16260994975346,0-5.735144379712438,2.573230273728768-5.735144379712438,5.736536067262932v3.728394765359553"/>
  <g>
    <circle class="cls-1" cx="5.95674470308677" cy="21.128830561093764" r="2.062340856263063"/>
    <circle class="cls-1" cx="5.95674470308677" cy="42.848413684595016" r="2.062340856254423"/>
    <circle class="cls-1" cx="32.904124797932127" cy="21.12883056050714" r="2.062340856255332"/>
  </g>
  <g>
    <line class="cls-1" x1="27.495931848534383" y1="39.430020476973368" x2="35.493687633656009" y2="39.430020476973368"/>
    <line class="cls-1" x1="27.495931848534383" y1="42.361024630346947" x2="35.493687633656009" y2="42.361024630346947"/>
    <line class="cls-1" x1="27.495931848534383" y1="45.292028783758724" x2="33.840930629954528" y2="45.292028783758724"/>
  </g>
  <path class="cls-1" d="m19.430434750991481,22.835761547410584l-8.831685260656741,3.066732232364302v3.403921707342306c0,5.450826991103895,3.598399866332329,10.247417772638073,8.831685260656741,11.772223224104891,5.233285394324412-1.524805451466818,8.831685260656741-6.321396233000996,8.831685260656741-11.772223224104891v-3.403921707342306l-8.831685260656741-3.066732232364302Z"/>
  <path class="cls-1" d="m24.44643687509415,27.485110230365535l-4.818768591499975,8.62016867926468c-.244364515812777.437137269726009-.838734880182528.519772427731368-1.193076997513344.165873186351746l-4.739403858899095-4.733480295455593"/>
</svg>