<?xml version="1.0" encoding="UTF-8"?>
<svg id="Layer_1" data-name="Layer 1" xmlns="http://www.w3.org/2000/svg" width="49.434140836099687" height="50.039706530296826" viewBox="0 0 49.434140836099687 50.039706530296826">
    <defs>
        <style>
            .cls-1 {
            fill: none;
            stroke: #1a73e8;
            stroke-miterlimit: 10;
            stroke-width: 1px;
            }
        </style>
    </defs>
    <line class="cls-1" x1="26.600369749574384" y1="25.019853266614518" x2="22.831530495330298" y2="25.019853266614518"/>
    <g>
        <g>
            <path class="cls-1" d="m13.090543832042385,39.246267441811142l1.008035137223487.00000000001819c.465014196302945,0,.914861403303803-.165270339148265,1.269256266652519-.466331517007347l.89346384325836-.758990325171908c.438525369871059-.372481320115185.691237318853382-.918777762053651.691237318853382-1.494197671769143v-4.013520047263228"/>
            <path class="cls-1" d="m13.090543832042385,39.246267441907548l-1.008035137223487-.000000000040018c-.465014196321135-.000000000016371-.914861403307441-.165270339186463-1.269256266652519-.466331517045546l-.893463843214704-.758990325230116c-.438525369860145-.372481320111547-.691237318798812-.918777762095488-.691237318776984-1.49419767181098l.000000000174623-4.01352004725959"/>
            <path class="cls-1" d="m13.090543832162439,29.146708100017349l-.494192756410484-.000000000021828c-.796726836051675,0-1.56751503095802.283194974412254-2.174724743850675.799014725700545l-.008727636763069.007414057012284c-.75131393452466.638235124793937-1.184347429894842,1.574281765160777-1.18434742896352,2.560089443830293v.000001553982656"/>
            <path class="cls-1" d="m13.090543832162439,29.146708099915486l.494207473173446.000000000021828c.796717335320864.000000000040018,1.567496338851925.283191597463883,2.17469881096622.799005197830411l.008738853179239.007423585275319c.751313934404607.638235124717539,1.184347429454647,1.574281764826083,1.184347428348701,2.560089443575635v.000001553999027"/>
            <path class="cls-1" d="m20.974378275373965,43.810843128047054c-.174237596507737-.908308745445538-.822130261803977-1.653450245616114-1.697419224310579-1.952202231786941l-4.559337270471588-1.556184441578807"/>
            <polyline class="cls-1" points="11.463467343177399 39.143693559812164 11.463467343115553 40.484309496130663 12.917958544849171 43.811008362119537 13.263201199637479 43.810843495708468 14.717620319011985 40.48430949601061 14.717620319011985 39.145612235190129"/>
            <path class="cls-1" d="m5.206709386604416,43.810843127912449c.174237596522289-.908308745471004.822130261876737-1.653450245601562,1.697419224365149-1.952202231746924l4.559337270569813-1.556184441365986"/>
        </g>
        <path class="cls-1" d="m28.459752250530073,15.471977630491892h17.182581933215261c1.976742120335985,0,3.579208227158233,1.602466106818611,3.579208227158233,3.579208227136405v27.196714020315994c0,1.976742120319614-1.602466106822249,3.579208227156414-3.579208227158233,3.579208227156414H3.791806652332525c-1.976742120317795,0-3.579208227136405-1.6024661068368-3.579208227136405-3.579208227156414v-27.196714020315994c0-1.976742120317795,1.602466106818611-3.579208227136405,3.579208227136405-3.579208227136405h17.182571453562559"/>
        <line class="cls-1" x1="20.974378275373965" y1="20.553521981875747" x2="20.974378275373965" y2="13.435605420847423"/>
        <line class="cls-1" x1="28.459762560725721" y1="13.435631478523646" x2="28.459762560725721" y2="20.553521981875747"/>
        <polyline class="cls-1" points="20.974378275373965 10.869801446026031 20.974378275373965 .21259842813015 28.459762560725721 .21259842813015 28.459762560725721 10.869801446026031"/>
        <path class="cls-1" d="m28.460138347485554,4.903369628440487c2.350982929914608,0,4.264162775591103,1.914161466953374,4.264162775591103,4.266126018119394,0,2.351964551187848-1.913179845676495,4.266126018137584-4.264162775591103,4.266126018137584h-7.485843767659389c-2.351964551187848,0-4.265144396864343-1.914161466949736-4.265144396864343-4.266126018137584,0-2.35196455116602,1.913179845676495-4.266126018119394,4.265144396864343-4.266126018119394m-.753112554320978,2.565778762829723c-.937431392510916,0-1.701526414301043.761736703825591-1.701526414301043,1.700347255289671s.764095021790126,1.700347255313318,1.701526414301043,1.700347255313318h8.992266413999459c.937431392489088,0,1.700347255311499-.761736703849238,1.700347255311499-1.700347255313318s-.76291586282241-1.700347255289671-1.700347255311499-1.700347255289671m-8.992266413999459,0h.753196249868779m8.23907016413068,0h-.753685878778924"/>
        <path class="cls-1" d="m28.459755428617427,17.728397655873778h1.041479515763058c.780135760680423,0,1.412560750435659.632424989771607,1.412560750435659,1.41256075045203v.000002825114279c0,.780135760684061-.632424989755236,1.412560750435659-1.412560750435659,1.412560750435659h-9.568329052679474c-.780135760665871,0-1.412560750435659-.632424989751598-1.412560750435659-1.412560750435659v-.000002825114279c0-.780135760680423.632424989769788-1.41256075045203,1.412560750435659-1.41256075045203h1.041476498005068"/>
        <line class="cls-1" x1="25.962197656741409" y1=".212642558499283" x2="25.962197656741409" y2="10.869842901873199"/>
        <line class="cls-1" x1="23.467069561624157" y1=".212642558499283" x2="23.467069561624157" y2="10.869842901873199"/>
        <circle class="cls-1" cx="24.717070418043477" cy="16.994576730207427" r="1.589798876832219"/>
        <rect class="cls-1" x="26.08407814556449" y="27.027456201185487" width="18.595482695276587" height="4.367888054359355" rx="1.005180175447094" ry="1.005180175447094"/>
        <rect class="cls-1" x="26.084078144625835" y="34.778068079978787" width="18.595482696055228" height="3.466089371811861" rx="1.00518017544018" ry="1.00518017544018"/>
        <line class="cls-1" x1=".210357834001115" y1="23.516650900912282" x2="49.221542410903567" y2="23.516650900912282"/>
        <line class="cls-1" x1="26.084078144458545" y1="41.9113598847307" x2="44.687843206758771" y2="41.9113598847307"/>
        <line class="cls-1" x1="26.084078144458545" y1="45.578562311458882" x2="39.312107632065818" y2="45.578562311458882"/>
        <rect class="cls-1" x="5.206709386604416" y="27.021662887544153" width="15.767668888769549" height="18.548684169634726" rx="1.50815367856012" ry="1.50815367856012"/>
    </g>
</svg>
