<?xml version="1.0" encoding="UTF-8"?>
<svg id="Layer_1" data-name="Layer 1" xmlns="http://www.w3.org/2000/svg" width="44.764946471255826" height="49" viewBox="0 0 44.764946471255826 49">
  <defs>
    <style>
      .cls-1 {
        fill: none;
        stroke: #173B73;
        stroke-miterlimit: 10;
        stroke-width: 1px;
      }
    </style>
  </defs>
  <g>
    <rect class="cls-1" x="14.831195733813729" y="24.500878242164617" width="15.102555003628368" height="10.968584252716028" rx="1.467635535540467" ry="1.467635535540467"/>
    <path class="cls-1" d="m17.773972995550139,24.500878242164617v-3.375146002617839c0-2.545201856984932,2.063293774592239-4.608495631580809,4.60849563157899-4.608495631580809h.000009216990293c2.545201856994026,0,4.60849563159536,2.063293774595877,4.60849563159536,4.608495631580809v3.375146002617839"/>
    <g>
      <circle class="cls-1" cx="22.382473235616544" cy="29.041260680797677" r="2.24872602075834"/>
      <line class="cls-1" x1="22.382473235613361" y1="31.289986701558519" x2="22.382473235613361" y2="33.177806077012065"/>
    </g>
  </g>
  <path class="cls-1" d="m2.823136785465977.5h39.118672900323872c1.282174095853364,0,2.323136785465977,1.04096268961261,2.323136785465977,2.323136785465977v45.676863214534023H.5V2.823136785465977C.5,1.54096268961261,1.54096268961261.5,2.823136785465977.5Z"/>
  <path class="cls-1" d="m3.563829787233772,48.5V4.699465060291914c0-.669792143409722.542973814035577-1.212765957445299,1.212765957447118-1.212765957445299h35.211754981894046c.66979214341336,0,1.212765957447118.542973814035577,1.212765957447118,1.212765957445299v43.800534939708086"/>
  <line class="cls-1" x1="22.382473235627913" y1="3.486699102846615" x2="22.382473235627913" y2="16.51723660796597"/>
  <line class="cls-1" x1="22.382473235627913" y1="35.469462494880645" x2="22.382473235627913" y2="48.5"/>
</svg>