<svg width="65" height="33" viewBox="0 0 65 33" fill="none" xmlns="http://www.w3.org/2000/svg">
<g clip-path="url(#clip0_1964_3857)">
<g clip-path="url(#clip1_1964_3857)">
<path fill-rule="evenodd" clip-rule="evenodd" d="M23.0459 12.8533C21.5817 12.8533 20.3537 13.2775 19.5507 13.9912V11.4297C19.5507 10.6582 18.8658 10.0986 17.9684 10.0986C17.0474 10.0986 16.3626 10.6774 16.3626 11.4297V21.5151C16.3626 22.2675 17.0474 22.8463 17.9448 22.8463C18.7715 22.8463 19.4091 22.3447 19.4798 21.6309C20.2828 22.4026 21.5345 22.8463 23.0459 22.8463C26.3285 22.8463 28.7136 20.7436 28.7136 17.8498C28.7136 14.9561 26.3285 12.8533 23.0459 12.8533ZM22.4556 20.4733C20.6843 20.4733 19.5035 19.4123 19.5035 17.8498C19.5035 16.2871 20.7079 15.2067 22.4556 15.2067C24.2031 15.2067 25.4784 16.3257 25.4784 17.8304C25.4784 19.3737 24.2266 20.4733 22.4556 20.4733Z" fill="url(#paint0_linear_1964_3857)"/>
<path fill-rule="evenodd" clip-rule="evenodd" d="M64.6792 20.8398L61.3258 17.4057L64.3014 14.9364C64.6556 14.647 64.8209 14.3383 64.8209 14.0104C64.8209 13.3545 64.1833 12.853 63.3566 12.853C62.9552 12.853 62.5537 12.988 62.2467 13.2581L58.5155 16.4412C58.114 16.8078 57.9487 17.0778 57.9487 17.4057C57.9487 17.6951 58.0904 17.9652 58.4446 18.351L62.4356 22.3636C62.7426 22.6916 63.1205 22.846 63.6163 22.846C64.4194 22.846 65.057 22.325 65.057 21.6498C65.057 21.3604 64.939 21.1098 64.6792 20.8398Z" fill="url(#paint1_linear_1964_3857)"/>
<path fill-rule="evenodd" clip-rule="evenodd" d="M54.241 11.4385V21.5153C54.241 22.2677 54.926 22.8465 55.847 22.8465C56.7443 22.8465 57.4292 22.2871 57.4292 21.5153V11.4385C57.4292 10.667 56.768 10.1074 55.847 10.1074C54.9259 10.1074 54.241 10.6861 54.241 11.4385Z" fill="url(#paint2_linear_1964_3857)"/>
<path fill-rule="evenodd" clip-rule="evenodd" d="M41.8586 14.1652V21.5153C41.8586 22.2677 42.5435 22.8465 43.4644 22.8465C44.3618 22.8465 45.0468 22.2871 45.0468 21.5153V17.0397C45.0468 15.9593 45.9678 15.1877 47.2667 15.1877C48.5654 15.1877 49.4393 15.9401 49.4393 17.0397V21.5153C49.4393 22.2677 50.1242 22.8465 51.0215 22.8465C51.9425 22.8465 52.6038 22.2871 52.6038 21.5153V16.6924C52.6038 14.3583 50.88 12.8535 48.2114 12.8535C46.9125 12.8535 45.7553 13.22 44.9288 13.8373C44.7634 13.2586 44.1731 12.8535 43.4409 12.8535C42.5435 12.8535 41.8586 13.4129 41.8586 14.1652Z" fill="url(#paint3_linear_1964_3857)"/>
<path fill-rule="evenodd" clip-rule="evenodd" d="M35.1675 12.853C33.4672 12.853 31.9322 13.2772 30.9405 14.0299C30.5153 14.3577 30.2793 14.705 30.2793 15.0715C30.2793 15.6501 30.8695 16.1324 31.6488 16.1324C31.9559 16.1324 32.2156 16.0554 32.5935 15.8238C33.2784 15.3414 34.0103 15.1101 34.837 15.1101C36.2539 15.1101 37.0333 15.7274 37.0333 16.7885V17.2128H34.1048C31.3655 17.2128 29.6888 18.2738 29.6888 19.9907C29.6888 21.6885 31.3183 22.846 33.7271 22.846C35.1203 22.846 36.3012 22.4794 37.1513 21.8236C37.2931 22.4023 37.9069 22.8268 38.6863 22.8268C39.5601 22.8268 40.2214 22.2866 40.2214 21.5342V16.9428C40.2214 14.3383 38.3793 12.853 35.1675 12.853ZM34.5772 20.9361C33.5381 20.9361 32.9004 20.531 32.9004 19.8944C32.9004 19.2578 33.4673 18.9297 34.5299 18.9297H37.0333V19.0456C37.0333 20.1259 35.9705 20.9361 34.5772 20.9361Z" fill="url(#paint4_linear_1964_3857)"/>
<path fill-rule="evenodd" clip-rule="evenodd" d="M12.1619 22.8463C13.0123 22.8463 13.7084 22.2781 13.7084 21.5833V14.118C13.7089 13.7936 13.5585 13.4692 13.2572 13.223C12.6556 12.7316 11.6713 12.7317 11.0699 13.223L7.7931 15.8999C7.19158 16.3912 7.19147 17.1952 7.7931 17.6866C8.39456 18.1779 9.37897 18.178 9.98048 17.6866L10.6152 17.1681V21.5834C10.6152 22.2782 11.3113 22.8463 12.1619 22.8463Z" fill="url(#paint5_linear_1964_3857)"/>
<path fill-rule="evenodd" clip-rule="evenodd" d="M0.000114632 14.118C-0.00031471 13.7936 0.150038 13.4692 0.45128 13.223C1.0528 12.7316 2.03715 12.7317 2.63867 13.223L5.91545 15.8999C6.51697 16.3912 6.51708 17.1952 5.91545 17.6866C5.31404 18.1779 4.32948 18.178 3.72807 17.6866L3.09327 17.1681V21.5834C3.09327 22.2782 2.39722 22.8463 1.54675 22.8463C0.696214 22.8463 6.10352e-05 22.2782 6.10352e-05 21.5834L0.000114632 14.118Z" fill="#FABF00"/>
</g>
</g>
<defs>
<linearGradient id="paint0_linear_1964_3857" x1="30.4624" y1="19.6809" x2="29.7023" y2="12.6497" gradientUnits="userSpaceOnUse">
<stop offset="1e-05" stop-color="#007E8B"/>
<stop offset="1" stop-color="#009C4D"/>
</linearGradient>
<linearGradient id="paint1_linear_1964_3857" x1="30.4624" y1="19.6807" x2="29.7023" y2="12.6495" gradientUnits="userSpaceOnUse">
<stop offset="1e-05" stop-color="#007E8B"/>
<stop offset="1" stop-color="#009C4D"/>
</linearGradient>
<linearGradient id="paint2_linear_1964_3857" x1="30.4624" y1="19.6812" x2="29.7023" y2="12.6499" gradientUnits="userSpaceOnUse">
<stop offset="1e-05" stop-color="#007E8B"/>
<stop offset="1" stop-color="#009C4D"/>
</linearGradient>
<linearGradient id="paint3_linear_1964_3857" x1="30.4623" y1="19.6811" x2="29.7022" y2="12.6499" gradientUnits="userSpaceOnUse">
<stop offset="1e-05" stop-color="#007E8B"/>
<stop offset="1" stop-color="#009C4D"/>
</linearGradient>
<linearGradient id="paint4_linear_1964_3857" x1="30.4623" y1="19.6807" x2="29.7022" y2="12.6495" gradientUnits="userSpaceOnUse">
<stop offset="1e-05" stop-color="#007E8B"/>
<stop offset="1" stop-color="#009C4D"/>
</linearGradient>
<linearGradient id="paint5_linear_1964_3857" x1="30.075" y1="19.7196" x2="29.3326" y2="12.7746" gradientUnits="userSpaceOnUse">
<stop offset="1e-05" stop-color="#007E8B"/>
<stop offset="1" stop-color="#009C4D"/>
</linearGradient>
<clipPath id="clip0_1964_3857">
<rect width="65" height="33" fill="white"/>
</clipPath>
<clipPath id="clip1_1964_3857">
<rect width="65.0569" height="12.7476" fill="white" transform="translate(6.10352e-05 10.0986)"/>
</clipPath>
</defs>
</svg>
