<svg width="53" height="45" viewBox="0 0 53 45" fill="none" xmlns="http://www.w3.org/2000/svg">
<path d="M1.5 27.2891C1.5 13.0462 12.6929 1.5 26.5 1.5C40.3071 1.5 51.5 13.0462 51.5 27.2891M1.5 27.2891C1.5 32.2414 1.95008 36.8676 3.94601 40.7958C4.86821 42.6108 6.82085 43.5 8.80734 43.5C12.4422 43.5 15.3889 40.4603 15.3889 36.7107V35.3946C15.3889 30.9181 11.871 27.2891 7.53148 27.2891H1.5ZM51.5 27.2891C51.5 32.2414 51.0499 36.8676 49.054 40.7958C48.1318 42.6108 46.1791 43.5 44.1927 43.5C40.5578 43.5 37.6111 40.4603 37.6111 36.7107V35.3946C37.6111 30.9181 41.129 27.2891 45.4685 27.2891H51.5Z" stroke="#3AA15B" stroke-width="3" stroke-linecap="round" stroke-linejoin="round"/>
</svg>
