<?xml version="1.0" encoding="UTF-8"?>
<svg id="Layer_1" data-name="Layer 1" xmlns="http://www.w3.org/2000/svg" width="26" height="26" viewBox="0 0 26 26">
  <defs>
    <style>
      .cls-1 {
        fill: none;
        stroke: #1565C0;
        stroke-miterlimit: 10;
        stroke-width: .283464566929134px;
      }
    </style>
  </defs>
  <g transform="scale(-1,1) translate(-26,0)">
  <g>
    <rect class="cls-1" x="4.257517044190536" y="1" width="17.484965911618929" height="24" rx="1.235094833178664" ry="1.235094833178664"/>
    <path class="cls-1" d="m15.6683856823729,18.908698153267324h-2.036711437445774l1.147250633182921-1.895851873723586h-2.878886178628818l-1.568424381843215,3.458174251156379h1.656195301913613l-.575747767217763,2.53345813973101,4.256323830039037-4.095780517163803Z"/>
    <circle class="cls-1" cx="13.000000000005457" cy="13.65113874552344" r="2.044981142924144"/>
    <line class="cls-1" x1="9.661717639111885" y1="3.651539400641923" x2="16.338282360888115" y2="3.651539400641923"/>
    <line class="cls-1" x1="9.661717639111885" y1="6.303078801296579" x2="16.338282360888115" y2="6.303078801296579"/>
    <line class="cls-1" x1="9.661717639111885" y1="8.954618201943958" x2="16.338282360888115" y2="8.954618201943958"/>
    <polyline class="cls-1" points="10.955018857084724 13.651138745519347 7.347053431014501 12.167880776880338 7.347053431014501 1"/>
    <polyline class="cls-1" points="15.044981143020777 13.651138745613935 18.652946569149208 12.167880777134997 18.652946569647611 1.000000000249202"/>
  </g>
  <path class="cls-1" d="m4.257517044190536,2.735596332764544h-2.086782173138999c-.361855750523318,0-.655197795404092.293342044880774-.655197795404092.655197795404092v19.218411743662728c0,.361855750523318.293342044880774.655197795404092.655197795404092.655197795404092h2.086782173138999"/>
  <path class="cls-1" d="m21.742482955809464,23.264403667235456h2.086782173138999c.361855750523318,0,.655197795404092-.293342044880774.655197795404092-.655197795404092V3.390794128168636c0-.361855750523318-.293342044880774-.655197795404092-.655197795404092-.655197795404092h-2.086782173138999"/>
  </g>
</svg>