<?xml version="1.0" encoding="UTF-8"?>
<svg id="Layer_1" data-name="Layer 1" xmlns="http://www.w3.org/2000/svg" width="26" height="26" viewBox="0 0 26 26">
  <defs>
    <style>
      .cls-1 {
        fill: none;
        stroke: #1565C0;
        stroke-miterlimit: 10;
        stroke-width: .283464566929134px;
      }
    </style>
  </defs>
  <g transform="scale(-1,1) translate(-26,0)">
  <rect class="cls-1" x="6.777298041601171" y="6.777374370822145" width="12.445396391234681" height="12.445396391223767" rx="1.306961689893797" ry="1.306961689893797"/>
  <g>
    <path class="cls-1" d="m10.594311745684536,6.777374370822145v-1.975156347045413c0-.545423546373058-.442153145790144-.987576692154107-.987576692161383-.987576692154107h-.000001975151463c-.545423546371239,0-.987576692163202.442153145781049-.987576692163202.987576692154107v1.975156347045413"/>
    <path class="cls-1" d="m13.987573916956535,6.777374370822145v-1.975156347045413c0-.545423546373058-.442153145791963-.987576692154107-.987576692161383-.987576692154107h-.000001975162377c-.545423546360325,0-.987576692150469.442153145781049-.987576692150469.987576692154107v1.975156347045413"/>
    <path class="cls-1" d="m17.38083608821762,6.777374370822145v-1.975156347045413c0-.545423546373058-.44215314577923-.987576692154107-.987576692150469-.987576692154107h-.000001975153282c-.545423546371239,0-.987576692150469.442153145781049-.987576692150469.987576692154107v1.975156347045413"/>
  </g>
  <g>
    <path class="cls-1" d="m15.405680728754305,19.222770762045911v1.975156347054508c0,.545423546371239.442153145788325.987576692152288.987576692159564.987576692152288h.000001975153282c.545423546371239,0,.987576692150469-.442153145781049.987576692150469-.987576692152288v-1.975156347054508"/>
    <path class="cls-1" d="m12.012418557482306,19.222770762045911v1.975156347054508c0,.545423546371239.442153145790144.987576692152288.987576692150469.987576692152288h.000001975162377c.54542354636942,0,.987576692161383-.442153145781049.987576692161383-.987576692152288v-1.975156347054508"/>
    <path class="cls-1" d="m8.619156386208488,19.222770762045911v1.975156347054508c0,.545423546371239.442153145791963.987576692152288.987576692163202.987576692152288h.000001975151463c.545423546371239,0,.987576692161383-.442153145781049.987576692161383-.987576692152288v-1.975156347054508"/>
  </g>
  <g>
    <path class="cls-1" d="m19.222694432835851,10.594388074903691h1.975156347047232c.54542354636942,0,.98757669214865-.442153145808334.98757669214865-.987576692159564v-.000001975164196c0-.545423546360325-.44215314577923-.987576692159564-.98757669214865-.987576692159564h-1.975156347047232"/>
    <path class="cls-1" d="m19.222694432835851,13.987650246164776h1.975156347047232c.54542354636942,0,.98757669214865-.442153145788325.98757669214865-.987576692159564v-.000001975144187c0-.545423546371239-.44215314577923-.987576692159564-.98757669214865-.987576692159564h-1.975156347047232"/>
    <path class="cls-1" d="m19.222694432835851,17.380912417438594h1.975156347047232c.54542354636942,0,.98757669214865-.442153145781049.98757669214865-.987576692152288v-.000001975153282c0-.54542354636942-.44215314577923-.987576692161383-.98757669214865-.987576692161383h-1.975156347047232"/>
  </g>
  <g>
    <path class="cls-1" d="m6.777298041601171,15.405757057971641h-1.975156347045413c-.545423546360325,0-.987576692161383.442153145791963-.987576692161383.987576692161383v.000001975153282c0,.545423546360325.442153145801058.987576692152288.987576692161383.987576692152288h1.975156347045413"/>
    <path class="cls-1" d="m6.777298041601171,12.012494886701461h-1.975156347045413c-.545423546360325,0-.987576692161383.442153145788325-.987576692161383.987576692159564v.000001975144187c0,.545423546371239.442153145801058.987576692159564.987576692161383.987576692159564h1.975156347045413"/>
    <path class="cls-1" d="m6.777298041601171,8.619232715420367h-1.975156347045413c-.545423546360325,0-.987576692161383.442153145788325-.987576692161383.987576692159564v.000001975164196c0,.54542354635123.442153145801058.987576692159564.987576692161383.987576692159564h1.975156347045413"/>
  </g>
  <g>
    <path class="cls-1" d="m12.33492862447747,13.466595153620801c-.692851445388442.149737327052208-1.291030613096154.534477542149034-1.730835877549907,1.058393156739839"/>
    <path class="cls-1" d="m12.33492862447747,11.446406469180147c-1.199548917680659.155568391228371-2.267348791154291.723271997145275-3.059108287272466,1.558764474513737"/>
    <path class="cls-1" d="m12.33492862447747,9.437769893000223c-1.704376048628546.157878812889976-3.235360453283647.91283659268629-4.378689110772029,2.057485491113766"/>
  </g>
  <g>
    <path class="cls-1" d="m13.665063850123261,13.466595153593516c.692851445388442.149737327024923,1.291030613112525.534477542089007,1.730835877588106,1.058393156652528"/>
    <path class="cls-1" d="m13.665063850026854,11.446406469152862c1.199548917689754.155568391179258,2.267348791192489.72327199702886,3.059108287339768,1.558764474377313"/>
    <path class="cls-1" d="m13.665063849941362,9.437769892972938c1.704376048637641.15787881280994,3.235360453321846.912836592533495,4.378689110857522,2.057485490900945"/>
  </g>
  <circle class="cls-1" cx="12.999996237223968" cy="16.533468710360921" r="1.158697650050954"/>
  <circle class="cls-1" cx="4.500709361553618" cy="21.529083061181609" r="1.399991831675379"/>
  <g>
    <circle class="cls-1" cx="4.48662095126565" cy="4.486697280474345" r="1.399991831676516"/>
    <circle class="cls-1" cx="21.513371523176374" cy="4.486697280474345" r="1.399991831676289"/>
    <circle class="cls-1" cx="21.513371523176374" cy="21.513447852391892" r="1.399991831676289"/>
  </g>
  <g>
    <path class="cls-1" d="m19.759083532742807,3.086640811952748c-1.925241356544575-1.31518002035773-4.251450889789339-2.086640811958205-6.759083532742807-2.086640811958205-2.507577632917673,0-4.833787166162438.771460791600475-6.759083532742807,2.086640811958205"/>
    <path class="cls-1" d="m22.91335918805089,19.759083532746445c1.315290040429318-1.925131336472987,2.08664081194911-4.25139587974445,2.08664081194911-6.758973512662124,0-2.507687652998356-.771350771519792-4.833842176207327-2.08664081194911-6.75919355284168"/>
    <path class="cls-1" d="m6.240916467257193,22.913359188047252c1.925296366580369,1.315400060508182,4.251505899825133,2.086640811958205,6.759083532742807,2.086640811958205,2.507632642953467,0,4.833842176198232-.771240751450023,6.759083532742807-2.086640811958205"/>
    <path class="cls-1" d="m3.086640811938196,6.240916467242641c-1.315290040429318,1.925351376634353-2.086640811938196,4.251505899843323-2.086640811938196,6.75919355284168,0,2.507577632917673.771350771508878,4.833842176189137,2.086640811938196,6.758973512662124"/>
  </g>
  </g>
</svg>