<?xml version="1.0" encoding="UTF-8"?>
<svg id="Layer_1" data-name="Layer 1" xmlns="http://www.w3.org/2000/svg" width="49.902076174204922" height="49.82732355616281" viewBox="0 0 49.902076174204922 49.82732355616281">
  <defs>
    <style>
      .cls-1 {
        fill: none;
        stroke: #0000FF;
        stroke-miterlimit: 10;
        stroke-width: 1px;
      }
    </style>
  </defs>
  <g>
    <path class="cls-1" d="m39.246313286488657,12.602251668112331l-3.416713856844581-.672434882210837c-.249839931202587-.907930533783656-.610068449059327-1.769491624512739-1.065686426434695-2.570401359012976l1.941124048542406-2.892399253359144c.139170695558278-.207368390217198.112166029994114-.484244170182137-.064424525455252-.660834725642417l-2.566129258328147-2.566129258341789c-.176590555467556-.176621738681206-.453466335435223-.203595221019896-.66083472565515-.064424525447976l-2.892399253370968,1.941124048544225c-.800909734483866-.45561797737173-1.662502008424781-.815846495240294-2.570401358989329-1.065686426430148l-.672434882235393-3.416745040056412c-.048240436011838-.245037715848412-.263092798206344-.421721820957828-.512839179758885-.421721820957828h-3.629071561714227c-.249746381552541,0-.464598743750685.176684105109416-.512839179777075.421721820957828l-.672434882217203,3.416745040056412c-.907899350564549.249808747983479-1.769522807728208.610099632280253-2.570401359022071,1.065717609643798l-2.892399253360054-1.941155231757875c-.207368390219926-.13917069557192-.484244170169404-.11219721323323-.660834725633322.064424525447976l-2.566129258364526,2.566129258341789c-.176590555445728.17659055546028-.203595220998977.453466335425219-.064424525418872.660834725642417l1.941124048542406,2.892399253359144c-.455617977375368.800909734500237-.815846495253936,1.66247082522932-1.065686426449247,2.570401359012976l-3.416713856830029.672434882210837c-.24506889906479.048240436038213-.421753004175116.263092798236357-.421753004175116.51283917978526v3.629040378496939c0,.249777564761644.176684105110326.464629926959788.421753004175116.51283917978526l3.416713856830029.672434882209018c.249839931195311.907930533778199.610099632292986,1.769522807728208,1.065717609650164,2.570432542228446l-1.941155231743323,2.892368070144585c-.139170695580106.207399573439034-.112166030026856.484275353403063.064424525418872.660865908856067l2.566129258364526,2.566129258342698c.176590555463918.176590555467556.453466335413395.203595221018986.660834725633322.064393342232506l2.892399253360054-1.941124048542406c.800878551293863.455617977362635,1.662470825234777.815908861666685,2.570401359022071,1.065717609642888l.672434882217203,3.416713856840943c.04824043602639.245068899061152.263092798224534.421753004169659.512839179777075.421753004169659h3.629071561714227c.249746381552541,0,.464598743747047-.176684105108507.512839179758885-.421753004169659l.672434882235393-3.416713856840943c.907899350564549-.249839931189854,1.769491624505463-.610099632280253,2.570401358989329-1.065717609642888l2.892399253370968,1.941124048542406c.207368390219926.13920187878648.484244170187594.112197213235049.66083472565515-.064393342232506l2.566129258328147-2.566129258342698c.176590555449366-.176590555453004.203595221013529-.453466335417033.064424525455252-.660865908856067l-1.941155231765151-2.892368070144585c.455617977379006-.800909734500237.815877678454854-1.662502008450247,1.06571760965744-2.570432542228446l3.416713856844581-.672434882209018c.24506889906479-.048209252825473.421753004156926-.263061615023616.421753004156926-.51283917978526v-3.629040378496939c0-.249746381548903-.176684105092136-.464598743747047-.421753004156926-.51283917978526Z"/>
    <circle class="cls-1" cx="24.95103139963976" cy="14.929626363079478" r="7.154084450721256"/>
  </g>
  <g>
    <path class="cls-1" d="m13.230953753865833,49.827108102153943l.003954201783927-3.901791597403644c.001183578093332-1.167890598142549-.457301973034191-2.289331272999334-1.276339878197177-3.121885631575424l-4.86575632052336-4.946055129847082c-.876246501444257-.890707059272245-1.558130610181252-1.95355202324572-2.002528387092752-3.121318101100769L.288800264223028,22.118962361359081c-.227973341581674-.599056855739036.072849283751566-1.269497297547787.671906139501516-1.497470639093081l.000003532997653-.000001344487828c1.383673491389345-.526562155864667,2.939944875732181.09583706191188,3.578930795632914,1.431320880230487l5.103137398673425,10.776044537124108c.181977428390383.38427279537791.429449072733405.733940262643955.731336321874551,1.033348770433804l4.446816908264736,4.410304902838106"/>
    <path class="cls-1" d="m9.839919480358731,33.189590551524816c-.3845255540582-.556183079224866-.103255434918538-1.409753074589389.446695233917126-1.803140645804888l.133516811431036-.095506482943165c1.211355914158048-.866500193447791,2.863816994344234-.767222950920768,3.962718312723155.238073835274918l1.298155826476432,1.187578773860878,1.524230468236055,1.562139157591446c.703205833251559.72069505944819,1.502109717755957,1.341342049559898,2.374294399818609,1.844525607481046l.000004835012078.000002789423888c2.178391924706375,1.256764790461602,3.520511207374511,3.58052384489929,3.520511207374511,6.095449115397059v7.608395400347945"/>
    <path class="cls-1" d="m36.671122419071253,49.827108102075726l-.003954201605666-3.901791597398187c-.001183578053315-1.167890598149825.457301973117865-2.289331272977506,1.276339878335421-3.121885631517216l4.865756320745277-4.946055129625165c.876246501484275-.890707059235865,1.558130610257649-1.953552023187513,2.002528387245547-3.121318101013458l4.801483106166415-12.617095280651483c.227973341625329-.599056855724484-.072849283711548-1.269497297549606-.67190613945786-1.497470639124003l-.000003532975825-.000001344487828c-1.383673491411173-.526562155928332-2.939944875739457.095837061777274-3.57893079569476,1.431320880066778l-5.10313739915,10.776044536894915c-.18197742844859.384272795366996-.429449072791613.733940262627584-.731336321932758,1.0333487704047l-4.446816908464825,4.410304902638018"/>
    <path class="cls-1" d="m40.062156693335055,33.189590551610308c.384525554072752-.556183079215771.103255434973107-1.409753074589389-.446695233848004-1.803140645833992l-.13351681144195-.095506482941346c-1.211355914085289-.866500193505999-2.863816994307854-.767222951051735-3.962718312748621.238073835085743l-1.298155826516449,1.187578773809946-1.524230468308815,1.562139157522324c-.703205833269749.720695059419086-1.502109717799613,1.341342049496234-2.374294399898645,1.844525607373726l-.000004834993888.000002789431164c-2.178391924764583,1.256764790359739-3.520511207549134,3.580523844733762-3.520511207672826,6.095449115238807l-.000000000349246,7.608395400340669"/>
  </g>
</svg>
