<?xml version="1.0" encoding="UTF-8"?>
<svg id="Layer_1" data-name="Layer 1" xmlns="http://www.w3.org/2000/svg" width="50.039706527359158" height="50.039706527350063" viewBox="0 0 50.039706527359158 50.039706527350063">
  <defs>
    <style>
      .cls-1 {
        fill: none;
        stroke: #1565C0;
        stroke-miterlimit: 10;
        stroke-width: 1px;
      }
    </style>
  </defs>
  <g transform="scale(-1,1) translate(-50.039706527359158,0)"><path class="cls-1" d="m49.116189887152359,21.096794090737603l-5.759265637934732-1.13346662118056c-.421134046047882-1.53042172798996-1.028340798402496-2.982682406737695-1.79633749669847-4.332708222842484l3.271988671029249-4.875472845839795c.234588273513509-.349543360728603.189068792258695-.816249450953364-.10859497493766-1.113913218146081l-4.325507103972996-4.325507103986638c-.297663767194535-.29771633009932-.76436985743203-.343183248453897-1.113913218156085-.108594974925836l-4.875472845846161,3.271988671021973c-1.350025816105699-.767996698295065-2.802339057774589-1.375203450657864-4.332708222844303-1.79633749669938l-1.133466621178741-5.75931820083315c-.081314823915818-.413039357693378-.443473283376079-.710860813625004-.864449640690509-.710860813625004h-6.117219064486562c-.42097635731443,0-.783134816774691.297821455931626-.864449640690509.710860813625004l-1.133466621176922,5.75931820083315c-1.530369165093362.421081483134003-2.982734969667945,1.028393361318194-4.332708222844303,1.796390059613259l-4.875472845846161-3.272041233935852c-.349543360722237-.234588273528061-.816249450939722-.189121355173484-1.113913218154266.108594974925836l-4.325507103993004,4.325507103986638c-.297663767179984.297663767192716-.34318324843116.764369857417478-.108594974917651,1.113913218146081l3.271988671045619,4.875472845839795c-.767996698314164,1.35002581610479-1.375203450668778,2.802286494852524-1.796337496718479,4.332708222842484l-5.759265637911085,1.13346662118056c-.413091920619991.081314823923094-.710913376549797.443473283390631-.710913376549797.864449640695966v6.117166501573593c0,.421028920221943.297821455929807.78318737968948.710913376549797.864449640695966l5.759265637911085,1.133466621178741c.421134046049701,1.530421727986322,1.028393361319104,2.982734969655212,1.79639005962963,4.332760785751816l-3.27204123395677,4.875420282933192c-.234588273513509.349595923642482-.189068792262333.816302013859968.108594974917651,1.113965781054503l4.325507103993004,4.325507103983909c.297663767214544.297663767194535.76436985743203.343183248454807,1.113913218154266.108542412013776l4.875472845846161-3.271988671023792c1.349973253176358.767996698305069,2.8022864948598,1.375308576481984,4.332708222844303,1.796390059615078l1.133466621176922,5.759265637931094c.081314823915818.413091920601801.443473283376079.710913376529788.864449640690509.710913376529788h6.117219064486562c.42097635731443,0,.783134816774691-.297821455927988.864449640690509-.710913376529788l1.133466621178741-5.759265637931094c1.530369165069715-.421134046042425,2.982682406738604-1.028393361310009,4.332708222844303-1.796390059615078l4.875472845846161,3.271988671023792c.349543360724056.234640836441031.81624945096155.18912135518076,1.113913218156085-.108542412013776l4.325507103972996-4.325507103983909c.297663767196354-.297663767194535.343183248451169-.764369857412021.10859497493766-1.113965781054503l-3.272041233958589-4.875420282933192c.767996698310526-1.350025816096604,1.375256013579929-2.802339057765494,1.796390059627811-4.332760785751816l5.759265637934732-1.133466621178741c.413091920578154-.081262261006486.710913376527969-.443420720474023.710913376527969-.864449640695966v-6.117166501573593c0-.420976357305335-.297821455949816-.783134816772872-.710913376527969-.864449640695966Z"/>
  <circle class="cls-1" cx="25.0198419911776" cy="25.019852815850527" r="12.059035223383148"/>
  <path class="cls-1" d="m35.718563046970303,30.311655726613026l-4.206059930311312-4.206059930285846v-4.765777198863361l-3.897430768391132-3.897430768413869h-4.765777198866999l-.891018661004637.89101866099827,4.331622567429804,4.331622567442537-.64329666643971,2.981584156568715-2.981584156575991.643296666437891-4.331622567447994-4.331622567435261-.891018661006456.891018661002818v4.765777198866999l3.89743076844934,3.897430768418417h4.765777198845171l4.206059930291303,4.206059930276751"/>
  <path class="cls-1" d="m32.300908773588162,34.633083134645858l-4.061011749608952-4.061011749605314c-.6440085336435-.644008533628948-.6440085336435-1.688152670614727,0-2.332161204238218l.00000233215178-.000002332166332c.644008533623492-.644008533621673,1.688152670607451-.644008533621673,2.33216120421821,0l4.061011749623503,4.061011749614408"/>
</g>
</svg>

