<?xml version="1.0" encoding="UTF-8"?>
<svg id="Layer_1" data-name="Layer 1" xmlns="http://www.w3.org/2000/svg" width="26" height="26" viewBox="0 0 26 26">
  <defs>
    <style>
      .cls-1 {
        fill: none;
        stroke: #1565C0;
        stroke-miterlimit: 10;
        stroke-width: .283464566929134px;
      }
    </style>
  </defs>
  <g transform="scale(-1,1) translate(-26,0)">
  <rect class="cls-1" x="1" y="1.000000000003638" width="24" height="19.897435897439209" rx="1.316239316236533" ry="1.316239316236533"/>
  <g>
    <line class="cls-1" x1="1" y1="18.426084284088574" x2="25" y2="18.426084284088574"/>
    <line class="cls-1" x1="1" y1="2.60683760683969" x2="25" y2="2.60683760683969"/>
  </g>
  <g>
    <line class="cls-1" x1="9.897435897433752" y1="24.999999999998181" x2="9.897435897433752" y2="20.897435897442847"/>
    <line class="cls-1" x1="16.10256410256261" y1="20.897435897442847" x2="16.10256410256261" y2="24.999999999998181"/>
  </g>
  <line class="cls-1" x1="8.409984701895155" y1="24.999999999998181" x2="17.590015298088474" y2="24.999999999998181"/>
  <g>
    <path class="cls-1" d="m18.584811141097816,9.607212999660987l-1.334825762185574-.262703709400739c-.097606293811623-.354706047255604-.23833868348629-.691296697743383-.416337380303958-1.004192360527668l.758349249057574-1.129988989330741c.054370555331843-.081013711156629.043820499107824-.189182243704636-.025169071768687-.258171814581146l-1.002523356253732-1.002523356251913c-.068989570872873-.069001753394332-.177158103422698-.079539627096892-.258171814584784-.025169071772325l-1.129988989321646.758349249057574c-.312895662784285-.177998696808572-.649498495786247-.318731086492335-1.004192360533125-.416337380302139l-.262703709400739-1.334837944690662c-.018846347546059-.095730186820219-.102783861817443-.164756305233823-.200353608095611-.164756305233823h-1.417788675415068c-.097569746276349,0-.181507260549552.069026118413603-.200353608088335.164756305233823l-.262703709402558,1.334837944690662c-.354693864752335.09759411129744-.691308880257566.238350866004112-1.004192360533125.41634956281996l-1.129988989327103-.758361431575395c-.081013711162086-.054370555324567-.189182243711912-.043832681622007-.258171814584784.025169071772325l-1.002523356253732,1.002523356251913c-.068989570876511.068989570876511-.079539627096892.177158103424517-.025169071768687.258171814581146l.758349249057574,1.129988989330741c-.177998696808572.312895662784285-.318731086492335.649486313272064-.416337380303958,1.004192360527668l-1.334825762176479.262703709400739c-.095742369338041.018846347546059-.164768487749825.102783861824719-.164768487749825.200353608090154v1.417776492909979c0,.097581928781437.069026118411784.181519443060097.164768487749825.200353608095611l1.334825762176479.262703709400739c.097606293811623.354706047251966.238350866004112.691308880253928.416349562818141,1.004204543038213l-.758361431571757,1.129976806816558c-.054370555328205.081025893670812-.043820499107824.189194426224276.025169071768687.25818399709533l1.002523356253732,1.002523356255551c.068989570872873.06898957087833.177158103422698.079539627093254.258171814584784.025156889254504l1.129988989327103-.758349249061212c.312883480275559.177998696819486.649486313272064.31875545152252,1.004192360533125.41634956281996l.262703709402558,1.334825762180117c.018846347538783.095742369330765.102783861811986.164768487744368.200353608088335.164768487744368h1.417788675415068c.097569746278168,0,.181507260549552-.069026118413603.200353608095611-.164768487744368l.262703709400739-1.334825762180117c.354693864746878-.097606293807985.69129669774884-.238350866000474,1.004192360533125-.41634956281996l1.129988989321646.758349249061212c.081013711162086.05438273783875.189182243711912.043832681623826.258171814584784-.025156889254504l1.002523356253732-1.002523356255551c.068989570876511-.068989570871054.07953962710053-.177158103424517.025169071768687-.25818399709533l-.758361431568119-1.129976806816558c.177998696810391-.312895662784285.31874326900288-.649498495786247.416349562814503-1.004204543038213l1.334825762185574-.262703709400739c.095742369328946-.018834165035514.16476848774073-.102771679314174.16476848774073-.200353608095611v-1.417776492909979c0-.097569746265435-.069026118411784-.181507260544095-.16476848774073-.200353608090154Z"/>
    <circle class="cls-1" cx="12.999997387369604" cy="10.516460841670778" r="2.794924196100737"/>
  </g>
  <g>
    <circle class="cls-1" cx="3.120425313115447" cy="10.516460945487779" r=".86154346009107"/>
    <circle class="cls-1" cx="3.120425313115447" cy="4.641880272763046" r=".861543460091525"/>
    <line class="cls-1" x1="5.852443808835233" y1="10.51646094548596" x2="3.981968773201515" y2="10.51646094548596"/>
    <circle class="cls-1" cx="22.879574686520755" cy="10.516460945487779" r=".861543460089251"/>
    <line class="cls-1" x1="20.147556190804607" y1="10.51646094548596" x2="22.018031226434687" y2="10.51646094548596"/>
    <circle class="cls-1" cx="3.120425313115447" cy="16.391041618208874" r=".861543460090615"/>
    <circle class="cls-1" cx="22.879574686359774" cy="4.641880272718481" r=".861543460091525"/>
    <path class="cls-1" d="m18.132558352244814,8.256326485712634l3.434834138715814-.000000000063665c.264204956296453-.000000000007276.49386625671832-.181353068437602.55512621406524-.438357886594531l.557352844778507-2.338270751761229"/>
    <circle class="cls-1" cx="22.879574686886372" cy="16.391041618164309" r=".861543460090161"/>
    <path class="cls-1" d="m18.132558352448541,12.776595405410262l3.434834138715814-.000000000058208c.264204956289177-.000000000014552.49386625673651.181353068399403.555126214094344.438357886550875l.557352844996785,2.338270751708478"/>
    <path class="cls-1" d="m7.867441647493251,8.256326485963655l-3.434834138715814-.00000000021646c-.264204956296453-.000000000020009-.493866256711044-.181353068461249-.555126214045231-.438357886619997l-.557352844674824-2.338270751786695"/>
    <path class="cls-1" d="m7.867441647085798,12.776595405661283l-3.434834138715814-.000000000211003c-.264204956289177-.000000000027285-.493866256743786.181353068375756-.555126214114352.438357886525409l-.557352845100468,2.338270751683012"/>
  </g>
  </g>
</svg>