<?xml version="1.0" encoding="UTF-8"?>
<svg id="Layer_1" data-name="Layer 1" xmlns="http://www.w3.org/2000/svg" width="26" height="26" viewBox="0 0 26 26">
  <defs>
    <style>
      .cls-1 {
        fill: none;
        stroke: #1565C0;
        stroke-miterlimit: 10;
        stroke-width: .283464566929134px;
      }
    </style>
  </defs>
  <g transform="scale(-1,1) translate(-26,0)">
  <g>
    <path class="cls-1" d="m18.442591956836623,5.717070930597401l-1.300833953637266-.256013866846843c-.095120715137455-.345673332732986-.232269304917281-.673692583664888-.405735202166397-.9786202481082l.739037618126531-1.101213421408829c.052985989967056-.078950668454127.042704594639872-.184364651187934-.024528132486012-.251597378324732l-.976993745607615-.97699374561671c-.067232727136798-.067244599416881-.172646709881519-.077514122456705-.251597378332008-.024528132484193l-1.101213421414286.739037618124712c-.304927664439674-.173465897258211-.632958787660755-.310614487027124-.9786202481082-.405735202162759l-.256013866841386-1.300845825926444c-.018366418671576-.093292383866356-.100166434549465-.160560727843404-.195251532839393-.160560727843404h-1.381684187052088c-.095085098299023,0-.176885114176912.067268343977048-.195251532837574.160560727843404l-.256013866861394,1.300845825926444c-.345661460447445.095108842855552-.673704455937695.232281177186451-.978620248099105.405747074444662l-1.101213421414286-.739049490406614c-.078950668450489-.052985989972512-.184364651186115-.042716466932688-.251597378311999.024528132484193l-.97699374561671.97699374561671c-.067232727136798.067232727136798-.077514122471257.172646709870605-.024528132486012.251597378324732l.739037618106522,1.101213421408829c-.173465897249116.304927664443312-.310614487008934.632946915375214-.405735202148207.9786202481082l-1.300833953653637.256013866846843c-.093304256133706.018366418658843-.160572600112573.100166434547646-.160572600112573.195251532839393v1.381672314773823c0,.095096970570012.067268343978867.176896986456995.160572600112573.195251532835755l1.300833953653637.256013866846843c.095120715139274.345673332734805.232281177179175.67370445594679.405747074439205.978632120390103l-.73904949039752,1.101201549128746c-.052985989985245.078962540736029-.042704594650786.184376523468018.024528132486012.251609250602996l.97699374561671.976993745618529c.067232727125884.067232727134979.17264670986151.077514122454886.251597378311999.024516260204109l1.101213421414286-.739037618126531c.30491579216141.17346589726003.632946915380671.310638231590929.978620248099105.405747074441024l.256013866861394,1.30083395364818c.018366418660662.093304256146439.100166434538551.160572600125306.195251532837574.160572600125306h1.381684187052088c.095085098289928,0,.176885114167817-.067268343978867.195251532839393-.160572600125306l.256013866841386-1.30083395364818c.345661460447445-.095120715131998.673692583668526-.232281177180994.9786202481082-.405747074441024l1.101213421414286.739037618126531c.078950668450489.052997862250777.18436465119521.04271646693087.251597378332008-.024516260204109l.976993745607615-.976993745618529c.067232727125884-.067232727134979.077514122453067-.172646709866967.024528132486012-.251609250602996l-.739049490417528-1.101201549128746c.17346589726003-.304927664443312.31062635931994-.632958787655298.405747074457395-.978632120390103l1.300833953637266-.256013866846843c.093304256140982-.01835454637876.160572600119849-.100154562265743.160572600119849-.195251532835755v-1.381672314773823c0-.095085098291747-.067268343978867-.17688511418055-.160572600119849-.195251532839393Z"/>
    <circle class="cls-1" cx="12.999997453903688" cy="6.60316445581384" r="2.723750466293041"/>
  </g>
  <g>
    <rect class="cls-1" x="11.177215189880371" y="17.916141115696519" width="3.645569620248352" height="7.083858884303481"/>
    <g>
      <g>
        <line class="cls-1" x1="11.97416980739581" y1="24.020287878662202" x2="14.025830192613284" y2="24.020287878662202"/>
        <line class="cls-1" x1="11.97416980739581" y1="23.01188078350242" x2="14.025830192613284" y2="23.01188078350242"/>
      </g>
      <g>
        <line class="cls-1" x1="11.97416980739581" y1="19.90426033219228" x2="14.025830192613284" y2="19.90426033219228"/>
        <line class="cls-1" x1="11.97416980739581" y1="18.895853237030678" x2="14.025830192613284" y2="18.895853237030678"/>
      </g>
    </g>
  </g>
  <g>
    <rect class="cls-1" x="2.266553212506551" y="22.901775443931911" width="6.607594936705937" height="2.098224556068089"/>
    <g>
      <line class="cls-1" x1="3.217739464773331" y1="23.950887721968684" x2="4.285142487142366" y2="23.950887721968684"/>
      <line class="cls-1" x1="5.036649169689554" y1="23.950887721968684" x2="6.10405219203858" y2="23.950887721968684"/>
      <line class="cls-1" x1="6.855558874583949" y1="23.950887721968684" x2="7.922961896952984" y2="23.950887721968684"/>
    </g>
    <rect class="cls-1" x="2.266553212506551" y="20.80355088786564" width="6.607594936705937" height="2.09822455606627"/>
    <g>
      <line class="cls-1" x1="3.217739464773331" y1="21.852663165902413" x2="4.285142487142366" y2="21.852663165902413"/>
      <line class="cls-1" x1="5.036649169689554" y1="21.852663165902413" x2="6.10405219203858" y2="21.852663165902413"/>
      <line class="cls-1" x1="6.855558874583949" y1="21.852663165902413" x2="7.922961896952984" y2="21.852663165902413"/>
    </g>
  </g>
  <g>
    <rect class="cls-1" x="17.125851850778417" y="22.901775443931911" width="6.607594936715032" height="2.098224556068089"/>
    <g>
      <line class="cls-1" x1="18.07703810305793" y1="23.950887721968684" x2="19.144441125426965" y2="23.950887721968684"/>
      <line class="cls-1" x1="19.89594780796142" y1="23.950887721968684" x2="20.963350830332274" y2="23.950887721968684"/>
      <line class="cls-1" x1="21.71485751286491" y1="23.950887721968684" x2="22.782260535226669" y2="23.950887721968684"/>
    </g>
    <rect class="cls-1" x="17.125851850778417" y="20.80355088786564" width="6.607594936715032" height="2.09822455606627"/>
    <g>
      <line class="cls-1" x1="18.07703810305793" y1="21.852663165902413" x2="19.144441125426965" y2="21.852663165902413"/>
      <line class="cls-1" x1="19.89594780796142" y1="21.852663165902413" x2="20.963350830332274" y2="21.852663165902413"/>
      <line class="cls-1" x1="21.71485751286491" y1="21.852663165902413" x2="22.782260535226669" y2="21.852663165902413"/>
    </g>
  </g>
  <polyline class="cls-1" points="20.382489174948205 19.581504108342415 20.382489174948205 15.289252212534848 5.563505801395877 15.289252212534848 5.563505801395877 19.581504108342415"/>
  <line class="cls-1" x1="13.000000000010914" y1="12.915643530501256" x2="13.000000000010914" y2="16.924857343481563"/>
  </g>
</svg>