<?xml version="1.0" encoding="UTF-8"?>
<svg id="Layer_1" data-name="Layer 1" xmlns="http://www.w3.org/2000/svg" width="26" height="26" viewBox="0 0 26 26">
  <defs>
    <style>
      .cls-1 {
        fill: none;
        stroke: #1565C0;
        stroke-miterlimit: 10;
        stroke-width: .283464566929134px;
      }
    </style>
  </defs>
  <g transform="scale(-1,1) translate(-26,0)">
  <path class="cls-1" d="m17.091173638304099,16.880103921599584c0,2.259497405731963-1.831684555294487,4.09118196102645-4.09118196102645,4.09118196102645-2.259497405722868,0-4.09118196100826-1.831684555294487-4.09118196100826-4.09118196102645"/>
  <path class="cls-1" d="m23.19259065213555,16.880154516333278c-.594830481108147-5.1050543128149-4.927900075033904-9.069213293394569-10.192613611468914-9.069213293394569-5.26471353643683,0-9.597737211694039,3.964158980579668-10.192567692802186,9.069213293394569h20.3851813042711Z"/>
  <path class="cls-1" d="m10.159256872413607,8.194829790989388v-1.740651859423451c0-.439786237860972.35651718713234-.796303424989674.796303424993312-.796303424989674h4.035030872000789c.439786237859153,0,.796303424984217.356517187128702.796303424984217.796303424989674v1.740651859423451"/>
  <line class="cls-1" x1="12.973075733409132" y1="5.657874506576263" x2="12.973075733409132" y2="1"/>
  <g>
    <line class="cls-1" x1="12.999991677277649" y1="22.348260411794399" x2="12.999991677277649" y2="25"/>
    <line class="cls-1" x1="15.734069922369599" y1="21.615666353978668" x2="17.059939716482404" y2="23.912140201582588"/>
    <line class="cls-1" x1="8.264428351432798" y1="19.614180619142644" x2="5.967954070534688" y2="20.940049662769525"/>
    <line class="cls-1" x1="17.735554109654913" y1="19.614182166702449" x2="20.032027957260652" y2="20.940051960806159"/>
    <line class="cls-1" x1="10.265911884634988" y1="21.615665460489254" x2="8.940041340056268" y2="23.912138874813536"/>
  </g>
  </g>
</svg>