<?xml version="1.0" encoding="UTF-8"?>
<svg id="Layer_1" data-name="Layer 1" xmlns="http://www.w3.org/2000/svg" width="50.039706530269541" height="46.974305620262385" viewBox="0 0 50.039706530269541 46.974305620262385">
  <defs>
    <style>
      .cls-1 {
        fill: none;
        stroke: #0000FF;
        stroke-miterlimit: 10;
        stroke-width: 1px;
      }
    </style>
  </defs>
  <path class="cls-1" d="m22.161166669935483,15.278628423775444c-1.188173140999425-.332250523097173-2.293582817030256-.081807860537083-3.159688529281993.501544560287584-.10263219647095.069126365782722-.238060527415655.002544544593547-.238060527415655-.121196403324575v-5.999006249523518H4.409464676948119C2.091599450646754,9.659970331214936.21259842813015,11.538971353738816.21259842813015,13.856836580040181v14.354051426944352h5.998991983789892c.1237437047821,0,.190322429454682-.135429139761982.121191529622592-.238061606160045-.583446463526343-.866190802014899-.833864662978158-1.972026852796262-.50133989627102-3.160284445373691.358824874898346-1.282239474192465,1.394563001251299-2.305905309010996,2.687224288047219-2.625154674889927,2.520699248501842-.622538668754714,4.774578583506809,1.268294923993381,4.774578583506809,3.685528823902132,0,.780499516422424-.244612960879749,1.498050538222742-.65000729971689,2.099905103106721-.069131423288127.102633556311048-.002550697709012.23806679941481.121194203460618.23806679941481h5.998985792668464v-5.999151105323108c0-.12375102031001.135447183878568-.190323357965099.238080386781803-.121180457474111.601906442712789.405497988122079,1.319386055023642.649961885068478,2.099891515757918.649961885068478,2.417344115128799,0,4.308109609952226-2.253824255658401,3.685352700111252-4.774888675638067-.31932894838792-1.29271765159865-1.343194828430569-2.328407309905742-2.625575545953325-2.687001229842281Z"/>
  <path class="cls-1" d="m31.999526259613049,24.924165978985911c1.078921191216068-.598393588108593,1.689546385930953-1.553269994070433,1.89598358225885-2.576902171975235.0244624906627-.121298840662348.167611311719156-.169073172335629.254552324762699-.081021582664107l4.214931995742518,4.268773155476083,10.213986520597246-10.085159604815999c1.649346649168365-1.628543778369931,1.666210707982827-4.285798995471851.037666929591069-5.9351456446675L38.531418807691807.300653525742746l-4.268763004271023,4.214921972579759c-.088053551400662.086942950019875-.040276448013174.23009017100776.081025808674895.254549668090476,1.023758881281537.206431669630547,1.978917452830501.817377452018263,2.577175230770081,1.896551422254561.645575288859618,1.164528190449346.627797472783641,2.620663196928945-.067728295955021,3.756065004650736-1.356280489311757,2.214042079514911-4.288605257443123,2.452149589655164-5.986965966241769.732094174920348-.54838289003419-.555387883418007-.878476148347545-1.237849171935522-1.012871672841356-1.950948975780193-.022918311882677-.121604076997755-.165451906332237-.171195717633964-.253506309041768-.084251927044534l-4.268758598789645,4.214917622673966,4.215033772172319,4.268876231992181c.086948089969155.088058756991813.0373406359613.230596177625557-.084271253526822.253506074241159-.71320954355906.134358219347632-1.395515285435977.464507375945686-1.950907398699201,1.012894442461402-1.720133841699862,1.69843814656997-1.48201657345453,4.630675875359884.732437373342691,5.987062876123673,1.1354980392789.695509961777134,2.591741340045701.713112736153562,3.756207766327861.067273866079631Z"/>
  <path class="cls-1" d="m.21259842813015,28.210888006984533v14.353952936311543c0,2.317865226301365,1.879001022516604,4.196866248836159,4.196866248817969,4.196866248836159h14.354051426967999v-5.99899198381172c0-.123743704756635-.135429139781991-.190322429451044-.238061606201882-.121191529618955-.866190801974881.583446463508153-1.972026852756244.833864662978158-3.160284445359139.501339896272839-1.282239474187008-.358824874885613-2.305905309010996-1.394563001256756-2.625154674891746-2.68722428802721-.622538668765628-2.520699248521851,1.268294923975191-4.774578583554103,3.685528823907589-4.774578583554103.780499516427881,0,1.498050538222742.244612960897939,2.099905103124911.650007299744175.10263355627103.069131423286308.238066799420267.002550697663537.238066799420267-.12119420343879v-5.998985792713938"/>
  <path class="cls-1" d="m18.763516103916118,46.761707192132235l14.353952936287897-.000004690802598c2.317865226301365-.000000757485395,4.19686563477444-1.879002394041891,4.196864877312692-4.196867620339617l-.000004690840797-14.354051426973456-5.99899198379353.000001960444934c-.123743704780281.000000040439772-.190322385209583.135429201989609-.121191451824416.238061645792186.583446746579284.866190611326601.833865307413362,1.972026580264355.501340929029539,3.160284281548229-.358824455866852,1.282239591440884-1.394562247698559,2.305905764733325-2.687223430148151,2.625155553057994-2.520699045086076.622539492527721-4.774578997978097-1.268293363678822-4.774579787928815-3.685527263605763-.00000025506597-.780499516404234.244612471329674-1.498050618170964.650006613461301-2.099905315542856.069131389755057-.102633578870154.002550619914473-.238066800247907-.121194281240605-.238066759829962l-5.998985792663007.000001960448571"/>
</svg>
