<?xml version="1.0" encoding="UTF-8"?>
<svg id="Layer_1" data-name="Layer 1" xmlns="http://www.w3.org/2000/svg" width="42.759210568261551" height="50.039706527350063" viewBox="0 0 42.759210568261551 50.039706527350063">
  <defs>
    <style>
      .cls-1 {
        fill: none;
        stroke: #1565C0;
        stroke-miterlimit: 10;
        stroke-width: 1px;
      }
    </style>
  </defs>
  <g transform="scale(-1,1) translate(-42.759210568261551,0)">
    <g>
      <path class="cls-1" d="m26.835325550599009,24.437821423600326l-2.137982915523025-.420771053766657c-.156335451792984-.568130680825561-.381745728809619-1.107246032552212-.666845240328257-1.608409255739389l1.214643726856593-1.809897008533881c.08708501266301-.129759205516166.070187046934734-.303012135689642-.040313160679943-.413512343329785l-1.605736020985205-1.605736020988843c-.110500207640143-.110519720295997-.283753137828171-.12739817335023-.413512343329785-.040313160683581l-1.809897008519329,1.214643726860231c-.501163223209005-.28509951153319-1.040298087606061-.510509788527997-1.608409255750303-.666845240337352l-.420771053770295-2.138002428165237c-.030186088872142-.15333050179197-.164628333379369-.263889247416046-.320905247193878-.263889247416046h-2.270864147005341c-.156276913832698,0-.290719158325373.110558745624076-.32090524719024.263889247416046l-.420771053748467,2.138002428165237c-.568111168173346.156315939153501-1.107265545233531.381765241469111-1.608409255750303.666864752993206l-1.809897008541157-1.214663239516085c-.129759205505252-.087085012666648-.303012135689642-.070206559612416-.413512343329785.040313160683581l-1.605736020985205,1.605736020988843c-.110500207640143.110500207640143-.127398173346592.283753137813619-.040313160679943.413512343329785l1.214643726852955,1.809897008533881c-.285099511536828.501163223187177-.510509788527997,1.040278574913827-.666845240324619,1.608409255739389l-2.137982915523025.420771053766657c-.153350014457828.03018608885759-.263908760076447.164628333364817-.263908760076447.320905247186602v2.270844634354944c0,.156296426472181.110558745618619.290738670986684.263908760076447.320905247181145l2.137982915523025.420771053768476c.156335451796622.568130680823742.381765241454559,1.107265545211703.666864752991387,1.608428768407975l-1.214663239519723,1.809877495878027c-.087085012666648.129778718150192-.0701870469602.303031648330943.040313160679943.413531855978363l1.605736020985205,1.605736020983386c.110500207640143.110500207638324.283753137824533.127398173341135.413512343329785.040293648025909l1.809897008541157-1.214643726860231c.501143710516772.285099511531371,1.040278574892.510548813856076,1.608409255750303.666864753000482l.420771053748467,2.137982915503017c.030186088864866.153350014446914.164628333357541.263908760069171.32090524719024.263908760069171h2.270864147005341c.156276913814509,0,.290719158321735-.110558745622257.320905247193878-.263908760069171l.420771053770295-2.137982915503017c.568111168144242-.156335451814812,1.107246032541298-.381765241469111,1.608409255750303-.666864753000482l1.809897008519329,1.214643726860231c.129759205501614.087104525315226.303012135689642.070206559612416.413512343329785-.040293648025909l1.605736020985205-1.605736020983386c.110500207614677-.110500207647419.127398173342954-.283753137828171.040313160679943-.413531855978363l-1.214663239519723-1.809877495878027c.285099511518638-.501163223196272.510529301198403-1.040298087584233.666864752991387-1.608428768407975l2.137982915523025-.420771053768476c.153350014436-.030166576194461.263908760058257-.164608820708963.263908760058257-.320905247181145v-2.270844634354944c0-.156276913821785-.110558745622257-.290719158329011-.263908760058257-.320905247186602Z"/>
      <circle class="cls-1" cx="17.890160773234129" cy="25.894158578043061" r="4.47661436474982"/>
    </g>
    <path class="cls-1" d="m26.042916583513943,6.157647122397066h8.221018846488732c.720066681122262,0,1.303796060550667.583729379418401,1.303796060550667,1.303796060534296v15.276550829154985"/>
    <path class="cls-1" d="m35.567731490553342,32.691131866911746v15.83218017470972c0,.720066681122262-.583729379428405,1.303796060532477-1.303796060550667,1.303796060532477H1.516394485739511c-.720066681133176,0-1.303796060543391-.583729379410215-1.303796060543391-1.303796060532477V7.461443182931362c0-.720066681115895.583729379410215-1.303796060534296,1.303796060543391-1.303796060534296h8.221103912514081"/>
    <path class="cls-1" d="m8.681095605074006,25.894158578053975h-1.848048608091631c-1.42379443196478,0-2.578007870757574,1.154213438789156-2.578007870757574,2.578007870757574v11.122642371565234c0,1.423794431970236,1.154213438792794,2.578007870766669,2.578007870757574,2.578007870766669h18.359216899214516"/>
    <line class="cls-1" x1="2.823069796517302" y1="12.326844687406265" x2="10.104475733211075" y2="12.326844687406265"/>
    <line class="cls-1" x1="2.823069796517302" y1="15.060464583772955" x2="10.104475733211075" y2="15.060464583772955"/>
    <line class="cls-1" x1="2.823069796517302" y1="17.794084480127822" x2="7.222755732063888" y2="17.794084480127822"/>
    <g>
      <path class="cls-1" d="m41.91603474121257,19.174068042035287l-2.126178172751679-1.227548284186923c-.602999345173885-.348141477995341-1.374051329490612-.141538323536224-1.722192761146289.461461048387719l-.862620960309869,1.494105124966154-9.986301933760842,17.296803098255623-.119406789701316,4.679110892620884c-.005803583226225.227420983674165.242659351752081.370871161894684.43670993502019.252134661504897l3.992528885395586-2.44296564105025,9.986301933779032-17.296803098255623.862620911859267-1.494105041096191c.348141420607135-.602999352731786.141538277606742-1.374051294245874-.461461048384081-1.722192761146289Z"/>
      <line class="cls-1" x1="27.218740913243892" y1="37.19888902945786" x2="31.528572943958352" y2="39.68716894253339"/>
      <line class="cls-1" x1="37.205042847004734" y1="19.902085931202237" x2="41.514874877737384" y2="22.390365844277767"/>
    </g>
    <path class="cls-1" d="m24.68254871762656,4.071934190069442h-2.504463636534638c-.241191928591434,0-.42560428654906-.189312212527511-.452119589186623-.429042238069087-.213418439070665-1.92955775540122-1.849370159354294-3.430293526803325-3.835756230870174-3.430293526803325-1.986456696242385,0-3.622346753487363,1.50073512275776-3.835757079272298,3.430292275817919-.026514368724747.239730620544833-.210927512245689.429043489054493-.452119929534092.429043489054493h-2.504462447799597c-.75131377249636,0-1.3603739243772.609060151891754-1.3603739243772,1.36037392439448v2.292576579407978c0,.751313772525464.60906015188084,1.360373924400847,1.3603739243772,1.360373924400847h13.584678913197422c.751313772507274,0,1.360373924391752-.609060151875383,1.360373924391752-1.360373924400847v-2.292576579407978c0-.751313772502726-.609060151884478-1.36037392439448-1.360373924391752-1.36037392439448Z"/>
    <circle class="cls-1" cx="17.890164957874731" cy="4.071933984970883" r="1.700034389305642"/>
  </g>
</svg>
