<?xml version="1.0" encoding="UTF-8"?>
<svg id="Layer_1" data-name="Layer 1" xmlns="http://www.w3.org/2000/svg" width="26" height="26" viewBox="0 0 26 26">
  <defs>
    <style>
      .cls-1 {
        fill: none;
        stroke: #1565C0;
        stroke-miterlimit: 10;
        stroke-width: .283464566929134px;
      }
    </style>
  </defs>
  <g transform="scale(-1,1) translate(-26,0)">
  <g>
    <circle class="cls-1" cx="18.320230882987744" cy="13.000000000239652" r="6.679769117010665"/>
    <g>
      <path class="cls-1" d="m13.348931886521314,8.536944846970073c1.222882390024097.95628715755447,2.997080135846772,1.557744724703298,4.971298996595579,1.557744724792428,1.974268654412299.00000000008913,3.748516193956675-.601507360552205,4.971398584046256-1.557794518006631"/>
      <path class="cls-1" d="m23.231827286292173,17.416996021996965c-1.220542088211005-.929498170795341-2.969245482321639-1.511685593191942-4.911596403437215-1.511685593279253-1.974268654401385-.00000000008913-3.748516193934847.601507360552205-4.971348790382763,1.557794518004812"/>
    </g>
    <ellipse class="cls-1" cx="18.320230882989563" cy="13.000000000239652" rx="3.730341509599384" ry="6.679769117012711"/>
    <line class="cls-1" x1="18.320230882685792" y1="19.679769117252363" x2="18.320230883286058" y2="6.320230883226031"/>
    <line class="cls-1" x1="24.999999999996362" y1="13.00000000054024" x2="11.640461765982764" y2="12.999999999939973"/>
  </g>
  <g>
    <rect class="cls-1" x="1.000000000023661" y="10.317936290303635" width="6.389414341880155" height="4.311854855135721" rx=".354595173151523" ry=".354595173151523" transform="translate(8.389414341372387 24.947727435929657) rotate(-180)"/>
    <line class="cls-1" x1="6.233918674748566" y1="15.682063708998612" x2="2.155495666887873" y2="15.682063708814894"/>
    <path class="cls-1" d="m4.782231932287687,15.682063708933129l.000000000047294-1.052272563467341m-1.175049522986228,1.05227256341459l.000000000047294-1.052272563467341"/>
  </g>
  <g>
    <g>
      <rect class="cls-1" x="1.000000000442029" y=".99999999960437" width="6.389414341880155" height="4.311854855146521" rx=".354595173153413" ry=".354595173153413" transform="translate(8.389414342623716 6.311854854542) rotate(-180)"/>
      <line class="cls-1" x1="6.233918675166933" y1="6.36412741831009" x2="2.155495667306241" y2="6.364127418126373"/>
      <path class="cls-1" d="m4.782231932706054,6.364127418244607l.000000000047294-1.052272563467341m-1.175049522986228,1.05227256341459l.000000000047294-1.052272563467341"/>
    </g>
    <line class="cls-1" x1="7.389414342265809" y1="4.414787143907233" x2="1.000000000385626" y2="4.414787143621652"/>
  </g>
  <line class="cls-1" x1="7.389414341847441" y1="13.732723434597574" x2=".999999999967258" y2="13.732723434311993"/>
  <g>
    <g>
      <rect class="cls-1" x=".999999999605322" y="19.635872580992299" width="6.389414341880098" height="4.311854855146578" rx=".354595173153342" ry=".354595173153342" transform="translate(8.389414340121 43.583600017317842) rotate(-180)"/>
      <line class="cls-1" x1="6.233918674330198" y1="24.999999999696229" x2="2.155495666469506" y2="24.999999999512511"/>
      <path class="cls-1" d="m4.782231931869319,24.999999999630745l.000000000047294-1.052272563465522m-1.175049522986228,1.052272563412771l.000000000047294-1.052272563465522"/>
    </g>
    <line class="cls-1" x1="7.389414341429074" y1="23.05065972529701" x2=".999999999548891" y2="23.050659725011428"/>
  </g>
  <path class="cls-1" d="m7.389414342322198,3.155927427316783l10.215214172589185.000000000458385c.395216275079292.00000000001819.715602368502005.320386093479101.715602368483815.715602368560212l-.000000000109139,2.448701086890651"/>
  <path class="cls-1" d="m7.389414341438169,22.844072572181176l10.215214172589185.000000000458385c.395216275079292.00000000001819.715602368531108-.320386093415436.715602368549298-.715602368494729l.000000000109139-2.44870108689247"/>
  <line class="cls-1" x1="11.640461765982764" y1="12.999999999939973" x2="7.389414341880183" y2="12.999999999748979"/>
  </g>
</svg>