<?xml version="1.0" encoding="UTF-8"?>
<svg id="Layer_1" data-name="Layer 1" xmlns="http://www.w3.org/2000/svg" width="26" height="26" viewBox="0 0 26 26">
  <defs>
    <style>
      .cls-1 {
        fill: none;
        stroke: #1565C0;
        stroke-miterlimit: 10;
        stroke-width: .283464566929134px;
      }
    </style>
  </defs>
  <g transform="scale(-1,1) translate(-26,0)">
  <path class="cls-1" d="m23.80374321160707,6.880363145943193l1.162883679431616,2.807449550342426c.080038308544317.193229569997129.012201255149193.416057134740186-.161937567030691.531881601917121l-2.427718435767019,1.615046176893884c.097657937174517.782439336875541.095045857631703,1.564413818519824-.000781025080869,2.330000335647128l2.42851610535763,1.615534435617519c.174122142458145.115850049813162.241952770926218.338696307908322.161927538249074.531894309933705l-1.162888300605118,2.807460706868369c-.080025232657135.193198002029021-.285564830272051.302810604920523-.490592002555786.261571897226531l-2.859589692219743-.574830735828073c-.473591579248023.609111256449978-1.024684018779226,1.163897734280908-1.646982645834214,1.648101313337975l.574646065133493,2.858666272350092c.041210352321286.205045000508107-.068384489262826.410575923042416-.261589935736993.490604239295862l-2.807473673869026,1.162893671722486c-.193205446465072.080028316249809-.416033011209947.012191262854685-.531881601924397-.161937567037967l-1.615046176893884-2.427718435767019c-.782429344581033.097682060730222-1.56441381850891.095045857651712-2.329976212105976-.000791017377196l-1.615568551451361,2.428501974123719c-.115815933992053.174136273706608-.338662192078118.241966902171043-.531860194101682.161941669502994l-2.807460706861093-1.16288830061967c-.193198002036297-.080025232651678-.302810604933256-.28556483027387-.261606013064011-.490606133789697l.574864851656457-2.859575560984013c-.609111256444521-.473591579257118-1.163897734286365-1.024684018784683-1.648111305636121-1.647006769373547l-2.858666272344635.574646065129855c-.205035008217237.041234475869715-.410565930753364-.068360365725312-.490604239297681-.26158993572426l-1.162883679429797-2.807449550340607c-.080028316249809-.193205446461434-.012191262854685-.41603301120449.161937567043424-.531881601931673l2.427718435759743-1.615046176886608c-.097657937185431-.782439336879179-.095059988881985-1.564379702675069.000766893836044-2.329966219813286l-2.428501974112805-1.61556855145318c-.174112150165456-.115825926266552-.241942778633529-.338672184354436-.161917545960023-.531870186388915l1.162888300608756-2.807460706862912c.080015240358989-.193222125566535.285564830270232-.302810604922342.490582010254002-.261596020771321l2.859599684528803.57485485936013c.473567455717784-.609101264140918,1.024674026470166-1.163921857818423,1.646982645828757-1.648101313339794l-.574656057426182-2.858690395887606c-.041200360032235-.20502087695786.068394481559153-.410551799501263.261599928024225-.490580115751072l2.807473673869026-1.162893671722486c.193205446474167-.080028316253447.416033011213585-.012191262849228.531871609638984.161913443494996l1.615056169184754,2.427742559302715c.782415213343484-.09764794487819,1.564379702685983-.095059988881985,2.329966219811467.000766893836044l1.615568551445904-2.428501974110986c.115825926290199-.174112150161818.338662192076299-.241966902167405.531870186399829-.161917545960023l2.807460706857455,1.162888300614213c.193198002039935.080025232660773.302810604936894.285564830277508.261596020774959.490582010244907l-.574830735824435,2.8595896922252c.609111256451797.473591579262575,1.163863618443429,1.024669887541677,1.648077189804098,1.64699263813236l2.858666272351911-.574646065135312c.205045000499013-.041210352319467.41057592303514.06838448927374.49060423928313.261589935736993Z"/>
  <circle class="cls-1" cx="12.999994451758084" cy="12.999999866959115" r="7.845329857934783"/>
  <circle class="cls-1" cx="12.999994451756265" cy="12.999999866954568" r="1.447117710712746"/>
  <path class="cls-1" d="m17.056894516681496,11.114085739389338c.307553152484616.660046512002737.457945351556191,1.404680052506592.406241398699422,2.182566682122342-.163836681869725,2.464924966554463-2.2948690516223,4.330325590928624-4.759794018185858,4.16648890905708-2.464924966552644-.163836681869725-4.330325590928624-2.294869051616843-4.16648890905708-4.759794018169487"/>
  <line class="cls-1" x1="12.999994451751263" y1="5.154670009014808" x2="12.999994451751263" y2="6.624220842384602"/>
  <line class="cls-1" x1="12.999994451751263" y1="19.375778891522714" x2="12.999994451751263" y2="20.845329724892508"/>
  <line class="cls-1" x1="20.845324309686475" y1="13.000002430766472" x2="19.375773476316681" y2="13.000001950524165"/>
  <line class="cls-1" x1="6.624215427182207" y1="12.999997783379513" x2="5.154664593812413" y2="12.999997303137206"/>
  <line class="cls-1" x1="18.547480394943705" y1="7.452513923761217" x2="17.508351035368833" y2="8.49164328333427"/>
  <line class="cls-1" x1="8.491637868131875" y1="17.508356450571227" x2="7.452508508558822" y2="18.5474858101461"/>
  <line class="cls-1" x1="18.547478582051554" y1="18.547487623034613" x2="17.508349562060175" y2="17.508357923878066"/>
  <line class="cls-1" x1="8.491639341438713" y1="8.491641810025612" x2="7.452510321447335" y2="7.452512110869066"/>
  <path class="cls-1" d="m11.553247493218805,13.008506446220053l-2.661544798933392-2.77005376694251c-.075133780524993-.078196922273492.074224748997949-.286648871160651.172427406641873-.240647983551753l3.478738469741074,1.629538967816188"/>
  <path class="cls-1" d="m12.991487872493963,11.553252908419381l3.538817936603664-3.734469056495072c.099898664217108-.105421775571813.308350613104267.04393675395113.240647983549934.172427406641873l-2.398303137473704,4.551662727304574"/>
  </g>
</svg>