<svg width="70" height="23" viewBox="0 0 70 23" fill="none" xmlns="http://www.w3.org/2000/svg">
<g clip-path="url(#clip0_1955_3867)">
<path fill-rule="evenodd" clip-rule="evenodd" d="M9.45605 22.3165C11.334 22.8514 13.2268 23.0633 14.8568 22.8589C20.3561 22.1692 23.3628 15.2485 23.6316 9.81983L9.45605 22.3165ZM3.26885 19.1592C3.66169 19.4821 4.0794 19.7882 4.51784 20.0762L22.6067 4.12907C22.3787 3.62742 22.1263 3.1776 21.852 2.77635L3.26885 19.1592ZM11.3246 1.14845C6.19985 3.19851 -0.62666 9.52589 0.0461365 14.1469C0.097468 14.4991 0.183674 14.8443 0.298288 15.1839L17.4524 0.0612964C17.1256 0.0200078 16.791 0.000181889 16.4499 0C14.8529 0 13.109 0.434714 11.3246 1.14845ZM6.08151 20.9854C6.57191 21.2372 7.0762 21.4672 7.58931 21.6746L23.5755 7.58168C23.5201 7.07657 23.4372 6.59728 23.321 6.15802C23.294 6.05636 23.2644 5.96068 23.2362 5.86192L6.08151 20.9854ZM1.08531 16.7778C1.35431 17.1923 1.66582 17.5927 2.01574 17.9763L20.719 1.48767C20.3111 1.13244 19.874 0.844691 19.4102 0.622787L1.08531 16.7778Z" fill="#8049FF"/>
<path d="M28.061 18.6342V4.85205H36.867V6.64212H30.2035V10.8414H36.2359V12.6247H30.2035V18.6342H28.061Z" fill="#8049FF"/>
<path d="M39.3353 18.6343V8.29766H41.4086V18.6343H39.3353ZM40.3823 6.70273C40.0218 6.70273 39.7122 6.5861 39.4534 6.35281C39.1989 6.11503 39.072 5.83238 39.072 5.50489C39.072 5.17288 39.1989 4.89026 39.4534 4.65697C39.7122 4.41919 40.0218 4.30029 40.3823 4.30029C40.7429 4.30029 41.0503 4.41919 41.3044 4.65697C41.5632 4.89026 41.6926 5.17288 41.6926 5.50489C41.6926 5.83238 41.5632 6.11503 41.3044 6.35281C41.0503 6.5861 40.7429 6.70273 40.3823 6.70273Z" fill="#8049FF"/>
<path d="M46.2707 12.497V18.6343H44.1977V8.29769H46.1876V9.98009H46.3192C46.5642 9.43276 46.9481 8.99307 47.4706 8.66109C47.9974 8.32911 48.6606 8.16309 49.4605 8.16309C50.186 8.16309 50.8218 8.31114 51.3672 8.60723C51.9126 8.89887 52.3356 9.33403 52.636 9.91278C52.9364 10.4915 53.0866 11.2071 53.0866 12.0595V18.6343H51.0136V12.3018C51.0136 11.5526 50.8123 10.9671 50.4102 10.5454C50.0081 10.1191 49.4557 9.90606 48.7532 9.90606C48.2723 9.90606 47.845 10.007 47.4706 10.2089C47.1005 10.4108 46.807 10.7069 46.5897 11.0972C46.3772 11.483 46.2707 11.9496 46.2707 12.497Z" fill="#8049FF"/>
<path d="M55.8673 18.6343V8.29766H57.9403V18.6343H55.8673ZM56.9144 6.70273C56.5538 6.70273 56.2439 6.5861 55.9851 6.35281C55.7309 6.11503 55.6037 5.83238 55.6037 5.50489C55.6037 5.17288 55.7309 4.89026 55.9851 4.65697C56.2439 4.41919 56.5538 4.30029 56.9144 4.30029C57.2749 4.30029 57.5823 4.41919 57.8364 4.65697C58.0953 4.89026 58.2247 5.17288 58.2247 5.50489C58.2247 5.83238 58.0953 6.11503 57.8364 6.35281C57.5823 6.5861 57.2749 6.70273 56.9144 6.70273Z" fill="#8049FF"/>
<path d="M62.6361 15.1281L62.6223 12.6718H62.9829L67.2266 8.29759H69.7087L64.8688 13.2775H64.5433L62.6361 15.1281ZM60.7294 18.6342V4.85205H62.8028V18.6342H60.7294ZM67.4552 18.6342L63.6417 13.7216L65.0701 12.3152L70 18.6342H67.4552Z" fill="#8049FF"/>
</g>
<defs>
<clipPath id="clip0_1955_3867">
<rect width="70" height="23" fill="white"/>
</clipPath>
</defs>
</svg>
