<svg width="25" height="22" viewBox="0 0 25 22" fill="none" xmlns="http://www.w3.org/2000/svg">
<path d="M20.2678 5.59848L20.6826 3.14605C20.9157 1.76757 22.2195 0.75 23.7527 0.75M20.2678 5.59848L18.9443 13.4241C18.6443 15.1981 16.9664 16.5076 14.9934 16.5076H5.63998C3.76642 16.5076 2.14423 15.3238 1.7378 13.6601L0.849497 10.0237C0.29474 7.75273 2.19437 5.59848 4.75167 5.59848H20.2678ZM16.4242 19.8409C16.4242 20.343 15.9768 20.75 15.4248 20.75C14.8729 20.75 14.4255 20.343 14.4255 19.8409C14.4255 19.3388 14.8729 18.9318 15.4248 18.9318C15.9768 18.9318 16.4242 19.3388 16.4242 19.8409ZM5.76454 19.8409C5.76454 20.343 5.31712 20.75 4.7652 20.75C4.21328 20.75 3.76586 20.343 3.76586 19.8409C3.76586 19.3388 4.21328 18.9318 4.7652 18.9318C5.31712 18.9318 5.76454 19.3388 5.76454 19.8409Z" stroke="#00162A" stroke-opacity="0.8" stroke-width="1.5" stroke-linecap="round" stroke-linejoin="round"/>
</svg>
