<svg width="53" height="53" viewBox="0 0 53 53" fill="none" xmlns="http://www.w3.org/2000/svg">
<path d="M35.1204 21.1249L26.2357 30.4329C25.1053 31.6171 23.2255 31.6171 22.0951 30.4329L19.3164 27.5219M17.1382 5.16167C19.1484 6.01383 21.4757 5.32475 22.71 3.51198C24.5364 0.829341 28.4637 0.829341 30.2902 3.51198C31.5244 5.32475 33.8517 6.01383 35.862 5.16167C38.8368 3.9006 42.1407 6.04161 42.2388 9.2941C42.3052 11.4919 43.8936 13.3404 46.0416 13.7194C49.2204 14.2803 50.8518 17.8826 49.1906 20.6723C48.068 22.5574 48.4132 24.9783 50.017 26.4682C52.3904 28.6729 51.8315 32.5928 48.9382 34.034C46.9831 35.0078 45.9755 37.2327 46.5259 39.3603C47.3404 42.509 44.7686 45.5018 41.5619 45.137C39.395 44.8904 37.3545 46.2127 36.6767 48.3027C35.6738 51.3955 31.9056 52.5112 29.4036 50.4561C27.7129 49.0674 25.2873 49.0674 23.5966 50.4561C21.0946 52.5112 17.3263 51.3955 16.3234 48.3027C15.6457 46.2127 13.6051 44.8904 11.4382 45.137C8.23154 45.5018 5.6597 42.509 6.47423 39.3603C7.02464 37.2327 6.01701 35.0078 4.06191 34.034C1.16865 32.5928 0.609737 28.6729 2.98313 26.4682C4.58693 24.9783 4.93213 22.5574 3.80956 20.6723C2.1483 17.8826 3.77977 14.2803 6.95849 13.7194C9.10649 13.3404 10.6949 11.4919 10.7613 9.2941C10.8595 6.04161 14.1633 3.9006 17.1382 5.16167Z" stroke="#3AA15B" stroke-width="3" stroke-linecap="round" stroke-linejoin="round"/>
</svg>
