<?xml version="1.0" encoding="UTF-8"?>
<svg id="Layer_1" data-name="Layer 1" xmlns="http://www.w3.org/2000/svg" width="48.999999999970896" height="49" viewBox="0 0 48.999999999970896 49">
  <defs>
    <style>
      .cls-1 {
        fill: none;
        stroke: #1565C0;
        stroke-miterlimit: 10;
      }
    </style>
  </defs>
  <g transform="scale(-1,1) translate(-48.999999999970896,0)">
  <path class="cls-1" d="m24.49993628932134.5H5.929653622373735C2.930938729876289.5.5,2.930938729876289.5,5.929653622373735v18.570410088252174"/>
  <path class="cls-1" d="m.5,24.500063710625909v18.570282666971252c0,2.998714892499265,2.430938729876289,5.429653622402839,5.429653622373735,5.429653622402839h18.570410088275821v-9.761135719938466c0-.160092177109618-.175210091483677-.246227734514832-.307989815692054-.156790326116607-1.120625663717874.754828011244172-2.551289964863827,1.07880404556272-4.088586309204402.648603463261679-1.658884461170601-.464226083506219-2.983241869440462-1.804201897906751-3.396267535052175-3.476569474596545-.805403159771231-3.261129374690427,1.640843839169975-6.177063162016566,4.768115956690963-6.177063162016566,1.009763422371179,0,1.938087861070017.316465565132603,2.716731168889964.840940425629014.132781134198012.089438085615257.307996534367703.003299939531644.307996534367703-.156793785339687v-5.761127710256915"/>
  <path class="cls-1" d="m24.500055867592891.500127421253637l.00000253629878,9.761135719936647c.000000052317773.160092177109618.175210171950312.246227677258503.307989866931166.156790225468285,1.120625417042902-.754828377459489,2.551289612316396-1.078804879311065,4.088586097243024-.648604799391251,1.658884612877955.464225541390988,2.98324245904405,1.804200922997552,3.396268671178404,3.476568364712875.805404225491657,3.261129111489936-1.640841820537389,6.177063698236452-4.768113938058377,6.177064720212002-1.009763422371179.000000329986506-1.938087964490478-.316464931775045-2.716731443704703-.840939537814847-.132781163427353-.089438042221445-.307996535446364-.003299838879684-.307996483128591.156793885991647l.000002536296961,5.761127710256915"/>
  <path class="cls-1" d="m48.499999999970896,24.500063710625909V5.929781043654657c0-2.998714892497446-2.430938729876289-5.429653622402839-5.429653622373735-5.429653622402839h-18.570410088275821"/>
  <path class="cls-1" d="m48.499999999970896,24.500063710625909v18.570282666971252c0,2.998714892499265-2.430938729876289,5.429653622402839-5.429653622373735,5.429653622402839h-18.570410088275821"/>
  </g>
</svg>