<?xml version="1.0" encoding="UTF-8"?>
<svg id="Layer_1" data-name="Layer 1" xmlns="http://www.w3.org/2000/svg" width="50.039706527346425" height="49.827108102146667" viewBox="0 0 50.039706527346425 49.827108102146667">
  <defs>
    <style>
      .cls-1 {
        fill: none;
        stroke: #1565C0;
        stroke-miterlimit: 10;
        stroke-width: 1px;
      }
    </style>
  </defs>
  <g transform="scale(-1,1) translate(-50.039706527346425,0)">
  <rect class="cls-1" x=".21259842519612" y=".21259842519612" width="49.614509676954185" height="41.133396911678574" rx="2.721023678863276" ry="2.721023678863276"/>
  <g>
    <line class="cls-1" x1=".21259842519612" y1="36.237041231210242" x2="49.827108102150305" y2="36.237041231210242"/>
    <line class="cls-1" x1=".21259842519612" y1="3.534367591599221" x2="49.827108102150305" y2="3.534367591599221"/>
  </g>
  <g>
    <line class="cls-1" x1="18.606011734918866" y1="49.827108102146667" x2="18.606011734918866" y2="41.345995336874694"/>
    <line class="cls-1" x1="31.433694792427559" y1="41.345995336874694" x2="31.433694792427559" y2="49.827108102146667"/>
  </g>
  <line class="cls-1" x1="15.531046662628796" y1="49.827108102146667" x2="34.508659864695801" y2="49.827108102146667"/>
  <g>
    <circle class="cls-1" cx="35.80483500549326" cy="21.931079495040649" r="9.866194525585342"/>
    <line class="cls-1" x1="42.824561961742802" y1="14.999890914210482" x2="35.804835005488712" y2="21.931079495034282"/>
    <line class="cls-1" x1="35.804835005488712" y1="31.797274020633267" x2="35.804835005488712" y2="21.931079495034282"/>
    <line class="cls-1" x1="26.009092946564124" y1="20.754572838808599" x2="35.804835005488712" y2="21.931079495034282"/>
    <line class="cls-1" x1="12.015480356898479" y1="3.534367591599221" x2="12.015480356898479" y2="32.894660635784021"/>
    <line class="cls-1" x1="15.488931981573842" y1="32.979661418869" x2="21.02666267001041" y2="32.979661418869"/>
    <line class="cls-1" x1="15.488931981573842" y1="27.455386773084683" x2="21.02666267001041" y2="27.455386773084683"/>
    <line class="cls-1" x1="15.488931981573842" y1="30.217524095985937" x2="24.2764337456465" y2="30.217524095985937"/>
    <line class="cls-1" x1="15.488931981573842" y1="16.437317605965291" x2="21.02666267001041" y2="16.437317605965291"/>
    <line class="cls-1" x1="15.488931981573842" y1="10.913042960202802" x2="21.02666267001041" y2="10.913042960202802"/>
    <line class="cls-1" x1="15.488931981573842" y1="13.675180283060399" x2="24.2764337456465" y2="13.675180283060399"/>
    <line class="cls-1" x1="2.710646410920162" y1="17.196212895969438" x2="8.74072300834996" y2="17.196212895969438"/>
    <line class="cls-1" x1="2.710646410920162" y1="10.913042960202802" x2="8.74072300834996" y2="10.913042960202802"/>
    <line class="cls-1" x1="2.710646410920162" y1="14.054627928084301" x2="8.757523698019213" y2="14.054627928084301"/>
    <line class="cls-1" x1="2.710646410920162" y1="20.337797863850938" x2="8.757523698019213" y2="20.337797863850938"/>
  </g>
  </g>
</svg>
