<?xml version="1.0" encoding="UTF-8"?>
<svg id="Layer_1" data-name="Layer 1" xmlns="http://www.w3.org/2000/svg" width="50.039764989269315" height="45.321366657065482" viewBox="0 0 50.039764989269315 45.321366657065482">
  <defs>
    <style>
      .cls-1 {
        fill: none;
        stroke: #1565C0;
        stroke-miterlimit: 10;
        stroke-width: 1px;
      }
    </style>
  </defs>
  <g transform="scale(-1,1) translate(-50.039764989269315,0)">
  <path class="cls-1" d="m36.036018928858539,31.974115832565985l-2.632966870431119-.518187604113336c-.192530100370277-.699663804538432-.470127169655825-1.363594676067805-.821232673453778-1.980786775111483l1.495856991623441-2.2289227981164c.107246859457518-.159800944502422.086436691359268-.373165243187032-.049646428758933-.509248363290681l-1.977494635342737-1.977494635357289c-.136083120100011-.136107150327007-.349447418797354-.156893288221909-.509248363310689-.049646428771666l-2.228922798090935,1.495856991637993c-.617192099076419-.351105503779763-1.281147000823694-.62870257308532-1.980786775129673-.821232673446502l-.51818760410606-2.632990900639925c-.037174746026722-.18882944690813-.202742942656187-.324984657667301-.395200952381856-.324984657667301h-2.796612649683084c-.192458009703842,0-.358026206333307.136155210759171-.395200952360028.324984657667301l-.518187604126069,2.632990900639925c-.699639774307798.192506070137824-1.363618706263878.470151199882821-1.980786775091474.821256703664403l-2.228922798130952-1.495881021855894c-.159800944489689-.107246859450242-.37316524317248-.086460721555341-.509248363310689.049646428771666l-1.977494635344556,1.977494635357289c-.136083120116382.136083120103649-.156893288214633.349447418788259-.049646428757114.509248363290681l1.495856991623441,2.2289227981164c-.351105503757935.617192099043677-.628702573083501,1.281122970573051-.821232673435588,1.980786775111483l-2.632966870412929.518187604113336c-.188853477138764.03717474603036-.325008687885202.202742942665282-.325008687885202.395200952367304v2.796588619472459c0,.192482039921742.136155210746438.358050236554845.325008687885202.395200952376399l2.632966870412929.518187604104241c.192530100352087.699663804538432.470151199886459,1.363618706283887.821256703664403,1.980810805329384l-1.495881021852256,2.2288987678985c-.107246859457518.159824974720323-.086436691359268.373189273403113.049646428757114.509272393514038l1.977494635344556,1.977494635359108c.13608312013821.13608312010183.349447418821001.156893288214633.509248363310689.049622398546489l2.228922798130952-1.495856991636174c.617168068827596.351105503787039,1.281122970573051.628750633522941,1.980786775091474.821256703662584l.518187604126069,2.632966870431119c.037174746026722.188853477116936.202742942656187.325008687877926.395200952360028.325008687877926h2.796612649683084c.192458009725669,0,.358026206355134-.13615521076099.395200952381856-.325008687877926l.51818760410606-2.632966870431119c.699639774305979-.192530100355725,1.363594676053253-.470151199875545,1.980786775129673-.821256703662584l2.228922798090935,1.495856991636174c.159800944513336.107270889668143.373165243210678.086460721555341.509248363310689-.049622398546489l1.977494635342737-1.977494635359108c.136083120118201-.136083120110925.156893288216452-.349447418793716.049646428758933-.509272393514038l-1.495881021830428-2.2288987678985c.351105503756116-.617192099045496.628726603290488-1.281147000790952.821256703660765-1.980810805329384l2.632966870431119-.518187604104241c.188853477102384-.037150715821554.325008687885202-.202718912454657.325008687885202-.395200952376399v-2.796588619472459c0-.192458009702023-.136155210782817-.358026206336945-.325008687885202-.395200952367304Z"/>
  <circle class="cls-1" cx="25.019877341187112" cy="33.767622905047574" r="5.513036249524929"/>
  <g>
    <path class="cls-1" d="m17.255189456733206,29.853262417206679h-4.499060747884869c-1.347372707965405-1.347372707978138-2.102831352136491-2.1028313521565-3.450204060145552-3.450204060143733H3.662802488275702c-1.347372707987233,1.347372707979957-2.102831352158319,2.102831352165595-3.450204060145552,3.450204060143733v1.290113269493304h6.271792048009956l1.692812873021467,2.624247423082124-1.692812873021467,2.624247423074848H.21259842813015v1.29011326950058c1.347372707987233,1.347372707972681,2.102831352158319,2.1028313521565,3.450204060145552,3.450204060136457h5.643122160427083c1.347372708009061-1.347372707979957,2.102831352180146-2.102831352163776,3.450204060145552-3.450204060136457l4.499060747884869-.000000000007276"/>
    <path class="cls-1" d="m13.678737372561955,34.820142014757039h-.936372178757665c-.581289616209688,0-1.052517956341035-.471228340138623-1.052517956341035-1.052517956364682v-.000002105029125c0-.581289616216964.471228340131347-1.052517956355587,1.052517956341035-1.052517956355587h.936372178757665"/>
  </g>
  <g>
    <path class="cls-1" d="m32.78457553253611,37.681983802357536h4.499060747884869c1.347372707987233,1.347372707972681,2.102831352158319,2.1028313521565,3.450204060145552,3.450204060136457h5.643122160427083c1.347372707987233-1.347372707972681,2.102831352158319-2.102831352163776,3.450204060145552-3.450204060136457v-1.29011326950058h-6.271792048009956l-1.692812873023286-2.624247423074848,1.692812873023286-2.624247423082124h6.271792048009956v-1.290113269493304c-1.347372707987233-1.347372707972681-2.102831352158319-2.1028313521565-3.450204060145552-3.450204060143733l-5.643122160427083.000000000007276c-1.347372707987233,1.347372707979957-2.102831352158319,2.102831352163776-3.450204060145552,3.450204060136457h-4.499060747884869"/>
    <path class="cls-1" d="m36.361027616743741,32.715104204805357h.936372178721285c.581289616209688,0,1.052517956341035.471228340134985,1.052517956341035,1.052517956351949v.000002105043677c0,.581289616209688-.471228340131347,1.052517956348311-1.052517956341035,1.052517956348311h-.936372178721285"/>
  </g>
  <rect class="cls-1" x="8.265612396860885" y="17.327155897978628" width="33.508540195569367" height="5.099322089710768" rx="1.372586912675623" ry="1.372586912675623"/>
  <path class="cls-1" d="m28.337161440935233,1.713782926512977c6.590428170286032,1.506496530032564,11.507491191225199,7.405132534627228,11.507491191225199,14.452210142169861v1.16116282929579"/>
  <path class="cls-1" d="m10.195102050203786,17.327155897978628v-1.16116282929579c0-7.030990751331046,4.894639597636342-12.9187771708539,11.462384097807444-14.441824563417867"/>
  <path class="cls-1" d="m26.865799806389987,14.189707893320701h-3.737769346358618c-.273361212190139,0-.50079177598127-.210146042473752-.522353974962243-.482655535722188l-1.023012469737296-12.929136319839927c-.024111654005537-.304730265547732.216671285552366-.565317612561557.522353974965881-.565317612561557h5.783794285862314c.305682689413516,0,.546465628947772.260587347013825.522353974945872.565317612561557l-1.023012469751848,12.929136319839927c-.02156219896824.272509493248435-.248992762737544.482655535722188-.522353974964062.482655535722188Z"/>
  <line class="cls-1" x1="16.32303637064615" y1="14.377671246214959" x2="15.561286031399504" y2="4.750442517521151"/>
  <line class="cls-1" x1="33.670793895813404" y1="14.377671245913007" x2="34.432544234605302" y2="4.750442517182819"/>
  <line class="cls-1" x1="21.129813156321688" y1="37.68198380235026" x2="28.909941526064358" y2="37.68198380235026"/>
  <line class="cls-1" x1="21.129813156321688" y1="29.960877978058306" x2="28.909941526064358" y2="29.960877978058306"/>
  <line class="cls-1" x1="30.431780916333082" y1="34.820142222549293" x2="19.607785753638382" y2="34.820142222549293"/>
  <line class="cls-1" x1="19.608021434356488" y1="32.715103997007645" x2="30.431721942839431" y2="32.715103997007645"/>
  </g>
</svg>
