<?xml version="1.0" encoding="UTF-8"?>
<svg id="Layer_1" data-name="Layer 1" xmlns="http://www.w3.org/2000/svg" width="50.039706527357339" height="48.640760360578497" viewBox="0 0 50.039706527357339 48.640760360578497">
  <defs>
    <style>
      .cls-1 {
        fill: none;
        stroke: #1565C0;
        stroke-miterlimit: 10;
        stroke-width: 1px;
      }
    </style>
  </defs>
  <g transform="scale(-1,1) translate(-50.039706527357339,0)">
  <g>
    <path class="cls-1" d="m15.458756278962028,21.282740565528002h-3.346894337664708c-.230327436678635,0-.428474026590266.162946092666971-.472963543947117.388930984310718l-.620149936825328,3.151077192465891c-.837305945598928.23038495380024-1.631934164113773.562661543026479-2.370540676238306.9828530996474l-2.667501733929384-1.790221367433332c-.191244531615666-.128349525524754-.446591929539863-.103473357114126-.609451746477134.059415218380309l-2.366600751312944,2.366600751331134c-.162859816944547.162859816922719-.187764743881417.41820721485783-.059415218398499.609451746458944l1.790192608885263,2.667501733927566c-.420191556644568.738635270712621-.752410628709185,1.533205972091309-.982824341077503,2.370540676258315l-3.151048433897813.620149936828966c-.226013650211826.044489517355032-.388959742882435.242636107246653-.388959742882435.472963543925289v3.34686557909663c0,.230356195228524.162946092670609.428502785136516.388959742882435.472963543903461l3.151048433897813.620149936828966c.230413712368318.837334704167006.562661543022841,1.631934164133781.982853099627391,2.370569434828212l-1.790221367435151,2.667472975355849c-.128349525482918.191273290189201-.103444598546048.44662068811158.059415218398499.609480505054307l2.366600751312944,2.366600751307487c.162859816937271.162859816922719.418207214861468.187764743905063.609451746477134.059386459810412l2.667501733929384-1.790192608843427c.738606512124534.420191556620921,1.53320597208949.752468145850798,2.370540676238306.982853099649219l.620149936825328,3.151048433895994c.044489517356851.226013650211826.242636107268481.388959742866064.472963543947117.388959742866064h3.346894337664708c.230327436660446,0,.428474026553886-.162946092654238.472963543910737-.388959742866064l.62014993682169-3.151048433895994c.837305945620756-.230413712391965,1.631905405549332-.562661543028298,2.370540676281962-.982853099649219l2.667501733885729,1.790192608843427c.191244531619304.128378284094651.446591929583519.103473357112307.609451746506238-.059386459810412l2.366600751312944-2.366600751307487c.162859816919081-.162859816942728.187764743895968-.418207214865106.059415218373033-.609480505054307l-1.790221367416962-2.667472975355849c.42019155660455-.738635270694431.752439387262712-1.533234730661206.982853099652857-2.370569434828212"/>
    <path class="cls-1" d="m20.287984328419043,35.978174687539649c-.532994558587234,3.109087559758336-3.241532372256188,5.475097367252602-6.502681385802134,5.475097367252602-3.64387594744403,0-6.597821049315826-2.953945101889985-6.597821049315826-6.59782104936312,0-3.643875947447668,2.953945101871795-6.597821049337654,6.597821049315826-6.597821049337654.439745897325338,0,.869443740011775.043020836015785,1.285114346112096.125083326123786"/>
  </g>
  <g>
    <path class="cls-1" d="m32.616248335443743,14.259870450519884c.120589560869121-.297379568239194.224560605292936-.60327969525315.310785971072619-.916626893245848l2.532265408692183-.498368802076584c.181630514529388-.035729835268285.312578280849266-.194965647089703.312578280849266-.380085945038445v-2.689629217478796c0-.185097186778876-.130947766319878-.344332998600294-.312578280849266-.380085945042083l-2.532265408692183-.498368802045661c-.185166520197527-.672904194065268-.452146505453129-1.311442110602002-.789823493327276-1.905028843682885l1.438645870879554-2.143674561091757c.103145054883498-.153689136226603.08313080044536-.358893022021221-.047747632408573-.489771454875154l-1.90186261636336-1.901862616356084c-.130878432850295-.130901544000153-.336082318641274-.150892687281157-.489771454893344-.047747632401297l-2.143674561066291,1.43864587086864c-.593586733077245-.337676987885061-1.232147760769294-.604656973107922-1.905028843688342-.78982349333819l-.498368802051118-2.532288519831127c-.035752946430875-.181607403381349-.194988758248655-.312555169688494-.380085945042083-.312555169688494h-2.689652328608645c-.18509718678979,0-.344332998622122.130947766307145-.380085945056635.312555169688494l-.498368802054756,2.532288519831127c-.672881082940876.185143409062221-1.311465221744584.452169616595711-1.905028843688342.789846604482591l-2.143674561066291-1.438668982013041c-.153689136212051-.10314505487986-.358893022024859-.083153911598856-.489771454893344.047747632401297l-1.901862616359722,1.901862616356084c-.130878432850295.130878432853933-.150892687273881.33608231864855-.047747632390383.489771454875154l1.438645870861365,2.143674561091757c-.337676987877785.593586733080883-.60465697311156,1.232124649617617-.789823493327276,1.905028843682885l-2.532265408688545.498368802045661c-.181630514518474.035752946441789-.312578280831076.194988758263207-.312578280831076.380085945042083v2.689629217478796c0,.185120297948743.130947766312602.34435610977016.312578280831076.380085945038445l2.532265408688545.498368802076584c.185166520215716.672904194063449.45216961659753,1.31146522173367.789846604475315,1.905051954825467l-1.438668982009403,2.143651449905519c-.103145054883498.153712247387375-.083130800459912.358916133192906.047747632390383.489794566061391l.703708132081374.70370813208865"/>
    <path class="cls-1" d="m21.002649682230185,14.753100627554886c-.893104072325514-.948969147080788-1.440346522955224-2.227134445885895-1.440346522955224-3.633115067470499,0-2.928314562239393,2.373867986349069-5.302182548603014,5.30218254862848-5.302182548603014,2.928314562250307,0,5.302182548603014,2.373867986363621,5.302182548603014,5.302182548603014,0,.7785428908428-.167797774276551,1.517894511591294-.469201067389804,2.183862606787443"/>
  </g>
  <circle class="cls-1" cx="27.279233740255222" cy="25.591489972501222" r="12.522760967630184"/>
  <circle class="cls-1" cx="27.279233740246127" cy="25.591489972519412" r="9.026977435870661"/>
  <line class="cls-1" x1="38.08700965756907" y1="38.122627096961878" x2="35.222078854918436" y2="35.257696294289417"/>
  <line class="cls-1" x1="36.945440062028865" y1="33.534335087162617" x2="39.810370864679498" y2="36.399265889851449"/>
  <path class="cls-1" d="m38.060964300476194,39.730998013672007h10.443092485359763c1.450672380736037,0,2.628434299403295,1.177761918667258,2.628434299403295,2.628434299403295v.000005254038953c0,1.450680910874162-1.177768844057148,2.62844975493131-2.62844975493131,2.62844975493131h-10.44307702983614c-.606600153253872,0-1.099082515120884-.492482361867019-1.099082515120884-1.099082515120884v-3.0587242781274c0-.606600153256295.49248236186898-1.099082515125275,1.099082515125275-1.099082515125275Z" transform="translate(42.853771393540356 -18.739270710864446) rotate(45.000000019791187)"/>
  </g>
</svg>
