<?xml version="1.0" encoding="UTF-8"?>
<svg id="Layer_1" data-name="Layer 1" xmlns="http://www.w3.org/2000/svg" width="40.551995645513671" height="49.022325145333525" viewBox="0 0 40.551995645513671 49.022325145333525">
  <defs>
    <style>
      .cls-1 {
        fill: none;
        stroke: #1565C0;
        stroke-miterlimit: 10;
      }
    </style>
  </defs>
  <g transform="scale(-1,1) translate(-40.551995645513671,0)">
  <path class="cls-1" d="m25.561031187768094,28.480995024172444c-.007075537918354,0-.014151075834889,0-.020964556793842.000262056961219l-2.592005390226404.027778037749158-1.519668310374982-2.96700889981912c-.000606006718954-.001179256320029-.001375799040034-.002227484161267-.001981805760806-.003406740481296-.028433180146749-.055294018538916-.059585201252048-.109277752268099-.093374170517563-.161689144249976-.014724325432326-.022798955509643-.031381320945002-.043697998058633-.046957331498561-.065776296929471-.020391307192767-.028826265590396-.039996443503696-.058176645099593-.062041985253018-.085954682848751-.020505957110799-.025812610540015-.042895448619674-.049528765410287-.064580662054141-.074096605399973-.019441350710622-.022012784631443-.037916366380159-.044746225899871-.058438702051717-.065972839651295-.024371297269681-.025091953910305-.05044596478001-.047956423659343-.076012896926841-.07160706429022-.020047357431395-.018540529908933-.039161136943221-.037867230708798-.060092936613728-.05562158973953-.028384044468112-.023978211829672-.058356809255201-.045597911019286-.08795286716304-.067741724129519-.020211143029883-.01519930367067-.039423193902621-.031315806711063-.06033861501237-.045728939499895-.03812928766456-.026271210230334-.07783091708734-.049790822380601-.117614439308454-.073179406039344-.014020047356098-.008189280000806-.027073759667473-.017557816321641-.041372242541911-.025419525121833-.055343154215734-.030595150059526-.112062107471502-.058373187808684-.170009452727754-.083268598998984-.00090082079987-.00039308544001-.001736127358527-.000917199360629-.002636948158397-.001310284800638l-4.794528623822771-2.05498516517946c-.13387834938294-.057587016939578-.276077007240019-.098795473881182-.423713347016019-.124411541699374-.108114874512466-.018868101120461-.216491805984333-.02980897919042-.324229973617548-.029874493429816-.000900820798051,0-.001752505919285-.00013102848061-.002653326719155-.00013102848061h-4.384999109763157c-.51153518569663,0-1.001319643721217.205976770468624-1.359027393964425.571546229510204l-3.151496999584197,3.220155923068887c-.734545658559.750793190070908-.721704867522931,1.954682863781272.028826265586758,2.689228522349367.370024427358658.362162718560285.850112777870891.542719963921627,1.330201128379485.542719963921627.493453255465283,0,.986644453969348-.191039523760992,1.359027393966244-.571546229510204l2.592267447185804-2.648609693560502,3.33452740750181.059880015329327-2.124790587871757,6.498095405800996-3.501932669187227,4.094902055170678H2.40174735788969c-1.05032429521998,0-1.90174735788969.85142306266971-1.90174735788969,1.90174735788969s.85142306266971,1.901747357878776,1.90174735788969,1.901747357878776h7.536496109345535c.067266745891175,0,.133632670982479-.003668797429782.199097775273913-.010482278388736.004651511037082-.000524113920619.00920475071689-.001637856001253.013856261752153-.002161969920053.061419599975125-.006878995191073.122036650507653-.016313045751303.181556337522125-.028891779829792.012103755834687-.002555055350967.02387994046876-.006420395509849.035934560622991-.009237507831131.05162522109822-.011989105920293.102759085395519-.025091953908486.152664557694152-.041142942698571.01893361535258-.006092824321968.037310359663024-.01382350464155.056080189413478-.020505957119894.041929113584047-.015002760950665.083628927324753-.030333093101945.12413310618831-.048152966370253.023519612150267-.010285735681464.046334946218849-.022209327351447.069494230050623-.033477776631116.034738925742204-.016968188150713.069199415969706-.034132919019612.102709949711425-.053132048620682.024911789751059-.014085561590036.049152058541949-.029350379500102.073506977250872-.044615197419262.030922721265597-.019457729269561.06135408573391-.039374058220346.091032036438264-.060469643489341.023699776309513-.016837159670104.046957331502199-.034329461750531.070001965410484-.052345877729749.030283957426946-.023716154881186.05953606557523-.048415023349662.088296816920774-.073900062699977.019916328952604-.017623330550123.039849036462329-.035115632621455.059159358695979-.053721676769783.033510533743538-.032298520311087.065235804449912-.066169382371299.096322311317635-.100826415320626.010187464315095-.011333963509969.021439535030368-.021161099510209.031397699503941-.032822634220793l3.034095481554687-3.547858151408946,3.416436586026975,3.145993803418605v6.976611414551371c0,1.05032429521998.851423062667891,1.90174735788969,1.901747357887871,1.90174735788969,1.050324295221799,0,1.901747357891509-.85142306266971,1.901747357891509-1.90174735788969v-7.810607689380049c0-.012971819520317-.00167061312095-.025419525110919-.001932670082169-.038325830390022-.000671520958349-.033019176940797-.00260419103688-.065972839651295-.004995460794817-.098926502350878-.002211105600509-.03085720702984-.00453686111905-.06158338557907-.008205658557927-.092047507159805-.003586904636904-.029612436470416-.008516851195964-.058962815979612-.013495933435479-.088378709719109-.005503196156496-.032626091511702-.010990013754054-.065121154530061-.018114687349225-.09715761787993-.006092824316511-.027319438071572-.013610583357149-.054245790701316-.020915421109748-.081368686051064-.008811665278699-.032626091500788-.017508680635729-.065186668769456-.027990959029921-.09709210362962-.008860800955517-.027057381110353-.019293943672892-.053590648300087-.029399515189652-.080320458209826-.01156326335331-.030464121580735-.022880848307977-.060928243170565-.035934560622991-.090606193880376-.012267541433175-.027974580470982-.02620569598912-.055294018529821-.039881793582026-.082744485080184-.013577826235633-.027253923830358-.026877216949288-.054507847658897-.041716192299646-.080975600609236-.015543253435681-.027778037740063-.032707984306398-.054835418850416-.049758065259084-.081958314200165-.015887203193415-.025222982390915-.031561485107886-.050511479019406-.048595187497995-.075013804769696-.01777073759331-.025485039350315-.036933652783773-.05018390782061-.056080189417116-.074948290530301-.019359457914106-.025157468140605-.038768051501393-.050052879330906-.059323144294467-.074162119641187-.01881896543091-.021947270388409-.038686158703058-.043239398379228-.058651623336118-.064466012139746-.023814426227545-.025419525100006-.047940045096766-.050445964769096-.073113891807225-.074555205079378-.008778908157183-.008385822718992-.016394938549638-.017557816310728-.025370389426826-.025812610550929l-4.582115079278083-4.219313596879147,1.75669883059345-5.372429734610705,1.900879294207698,3.47114097640042c.32573680114001.635488127731151.979568916052813,1.03460087763051,1.692625903900989,1.03460087763051.006813480957135,0,.01362696191245,0,.020440442871404-.000262056961219l3.768379083152468-.040618828777951c1.05032429521998-.011268449281488,1.892313307333097-.871863505541114,1.881044858057066-1.921925743801694-.011268449274212-1.043248757299807-.860332999303864-1.881306915020104-1.900961187007852-1.881306915020104Z"/>
  <circle class="cls-1" cx="19.912441694744757" cy="18.683392815162733" r="3.502516721669735"/>
  <polyline class="cls-1" points="14.689188742917395 22.451850548093716 14.689188742917395 10.06264096335326 29.190681776901329 10.06264096335326 29.190681776901329 48.522325145333525 14.689188742917395 48.522325145333525 14.689188742917395 36.748078111593713"/>
  <polygon class="cls-1" points="40.051995645513671 48.522325145333525 29.190681776901329 48.522325145333525 29.190681776901329 3.942247732253236 40.051995645513671 7.362170319163852 40.051995645513671 48.522325145333525"/>
  <path class="cls-1" d="m1.941117232370743,2.913704793143552h4.894728856599613c.795374252602624,0,1.441117232370743.645742979768119,1.441117232370743,1.441117232370743v1.247468392088194H.5v-1.247468392088194c0-.795374252602624.645742979768119-1.441117232370743,1.441117232370743-1.441117232370743Z"/>
  <line class="cls-1" x1="4.388481660671459" y1="2.913704793143552" x2="4.388481660671459" y2=".522325145333525"/>
  <path class="cls-1" d="m1.551956273173346,5.602290417602489c.556655008958842.999408041279821,1.611222146993896,1.683754801069881,2.836486433334358,1.683754801069881,1.225342194667974,0,2.279909332703028-.68434675979006,2.83656434166187-1.683754801069881"/>
  <line class="cls-1" x1="4.388442706507703" y1="7.286045218672371" x2="4.388442706507703" y2="10.06264096335326"/>
  <g>
    <line class="cls-1" x1="2.702044047287927" y1="6.748704411402286" x2=".536267628162022" y2="8.914480830533648"/>
    <line class="cls-1" x1="6.074919273958585" y1="6.748704411453218" x2="8.240695693180896" y2="8.914480830482717"/>
  </g>
  <path class="cls-1" d="m19.776621160712239,2.913704793143552h4.894728856599613c.795374252602624,0,1.441117232370743.645742979768119,1.441117232370743,1.441117232370743v1.247468392088194h-7.7769633213411v-1.247468392088194c0-.795374252602624.645742979768119-1.441117232370743,1.441117232370743-1.441117232370743Z"/>
  <line class="cls-1" x1="22.223985589012955" y1="2.913704793143552" x2="22.223985589012955" y2=".522325145333525"/>
  <path class="cls-1" d="m19.387460201514841,5.602290417602489c.556655008958842.999408041279821,1.611222146993896,1.683754801069881,2.836486433334358,1.683754801069881,1.225342194667974,0,2.279909332703028-.68434675979006,2.83656434166187-1.683754801069881"/>
  <line class="cls-1" x1="22.223946634849199" y1="7.286045218672371" x2="22.223946634849199" y2="10.06264096335326"/>
  <g>
    <line class="cls-1" x1="20.537547975629423" y1="6.748704411402286" x2="18.371771556503518" y2="8.914480830533648"/>
    <line class="cls-1" x1="23.91042320230008" y1="6.748704411453218" x2="26.076199621522392" y2="8.914480830482717"/>
  </g>
  <line class="cls-1" x1=".5" y1=".522325145333525" x2="30.793318313511918" y2=".522325145333525"/>
  </g>
</svg>