<?xml version="1.0" encoding="UTF-8"?>
<svg id="Layer_1" data-name="Layer 1" xmlns="http://www.w3.org/2000/svg" width="49" height="48.5" viewBox="0 0 49 48.5">
  <defs>
    <style>
      .cls-1 {
        fill: none;
        stroke: #1565C0;
        stroke-miterlimit: 10;
      }
    </style>
  </defs>
  <g transform="scale(-1,1) translate(-49,0)">
  <g>
    <path class="cls-1" d="m27.621466737784431,20.44671908115015c0,1.723941983309487-1.397531104505106,3.12147308782005-3.121473087821869,3.12147308782005-1.723941983307668,0-3.121473087807317-1.397531104510563-3.121473087807317-3.12147308782005"/>
    <path class="cls-1" d="m32.276700650059865,20.44675768371053c-.453841299724445-3.895033220500409-3.759868813031062-6.919590840190722-7.776718167477156-6.919590840190722-4.016849354447913,0-7.32284183291813,3.024557619690313-7.776683132642574,6.919590840190722h15.553401300119731Z"/>
    <path class="cls-1" d="m22.332581560378458,13.820064555069621v-1.328075354809698c0-.335546284410157.27201400856211-.607560292970447.607560292974085-.607560292970447h3.078631162208694c.335546284411976,0,.607560292968628.272014008560291.607560292968628.607560292970447v1.328075354809698"/>
    <line class="cls-1" x1="24.4794574344578" y1="11.884428907289475" x2="24.4794574344578" y2="9.654184691689807"/>
    <g>
      <line class="cls-1" x1="24.499993649962562" y1="24.618790498829185" x2="24.499993649962562" y2="26.642003799870508"/>
      <line class="cls-1" x1="26.58602935880117" y1="24.059838915269211" x2="27.597636009326379" y2="25.81199303124049"/>
      <line class="cls-1" x1="20.886873134153575" y1="22.532753609240899" x2="19.134718687591885" y2="23.544359687159158"/>
      <line class="cls-1" x1="28.113113484079804" y1="22.532754789990577" x2="29.865267600049265" y2="23.544361440510329"/>
      <line class="cls-1" x1="22.413956760381552" y1="24.059838233559276" x2="21.40234953727122" y2="25.811992018940145"/>
    </g>
  </g>
  <rect class="cls-1" x=".5" y=".5" width="48" height="39.794871794889332" rx="2.632478632476705" ry="2.632478632476705"/>
  <g>
    <line class="cls-1" x1=".5" y1="35.352168568180787" x2="48.5" y2="35.352168568180787"/>
    <line class="cls-1" x1=".5" y1="3.71367521367938" x2="48.5" y2="3.71367521367938"/>
  </g>
  <g>
    <line class="cls-1" x1="18.294871794869323" y1="48.5" x2="18.294871794869323" y2="40.294871794889332"/>
    <line class="cls-1" x1="30.705128205130677" y1="40.294871794889332" x2="30.705128205130677" y2="48.5"/>
  </g>
  <line class="cls-1" x1="15.319969403795767" y1="48.5" x2="33.680030596184224" y2="48.5"/>
  <g>
    <path class="cls-1" d="m22.549566208257602,3.71367521367938c-.268450910178217,0-.499394445096186.189916700841422-.551247804811283.453306294069989l-.722796282585477,3.672639059630455c-.975895648627557.268517947490182-1.902049612828705.655792490661042-2.762909236524138,1.145533563039862l-3.109022870985427-2.086536291530138c-.22289905764228-.149593758540504-.520511197941232-.120600121708776-.710327342803794.069249541829777l-2.758317180778249,2.758317180750964c-.189816144858924.189816144869837-.218843300366643.487428285159694-.069249541800673.710327342800156l2.086502772852327,3.109022870999979c-.489741072364268.860893142349596-.876948578232259,1.786980069229685-1.145500044374785,2.762909236518681l-3.672605540967197.722796282581839c-.263423111886368.051853359738743-.453339812736886.282796894638523-.453339812736886.551247804829472v3.90083406479971c0,.268484428839656.189916700850517.499427963759445.453339812736886.551247804820377l3.672605540967197.722796282589115c.268551466142526.975929167279901.655792490661042,1.902049612830524,1.145533563039862,2.762942755171025l-2.086536291517405,3.108989352349454c-.14959375856597.222932576289168-.120566603058251.520544716579025.069249541800673.710360861448862l2.758317180778249,2.758317180750964c.189816144862561.189816144889846.487428285161513.218843300370281.710327342803794.069216023179251l3.109022870985427-2.086502772859603c.860859623695433.48974107236063,1.78698006922059.877015615529672,2.762909236524138,1.145533563030767l.722796282585477,3.672605540959921c.051853359715096.263423111899101.282796894633066.453339812740523.551247804811283.453339812740523"/>
    <path class="cls-1" d="m26.450433791727846,35.352168568180787c.268450910163665,0,.499394445108919-.189916700841422.551247804825834-.453339812740523l.722796282558193-3.672605540959921c.975895648654841-.268551466149802,1.902016094203645-.655792490670137,2.762909236536871-1.145533563030767l3.109022870999979,2.086502772859603c.22289905764228.14962727719103.520511197941232.120600121710595.710327342814708-.069216023179251l2.758317180738231-2.758317180750964c.189816144889846-.189816144869837.218843300352091-.487428285159694.069249541827958-.710360861448862l-2.086536291515586-3.108989352349454c.489741072377001-.860893142340501.876982096870051-1.787013587891124,1.145533563039862-2.762942755171025l3.672605540965378-.722796282589115c.263423111886368-.051819841060933.453339812738704-.282763375980721.453339812738704-.551247804820377v-3.90083406479971c0-.26845091019095-.189916700852336-.499394445090729-.453339812738704-.551247804829472l-3.672605540965378-.722796282581839c-.268551466169811-.975929167288996-.655758972012336-1.902016094169085-1.14550004440207-2.762909236518681l2.086502772877793-3.109022870999979c.149593758524134-.222899057640461.120566603061889-.520511197930318-.069249541827958-.710327342800156l-2.758317180738231-2.758317180750964c-.189816144873475-.189849663538553-.487428285172427-.218843300370281-.710327342814708-.069249541829777l-3.109022870999979,2.086502772859603c-.860893142333225-.489741072369725-1.787013587882029-.876948578228621-2.762909236536871-1.145500044369328l-.722796282558193-3.672639059630455c-.051853359716915-.263389593228567-.28279689466217-.453306294069989-.551247804825834-.453306294069989"/>
    <circle class="cls-1" cx="24.499992811683569" cy="19.532921605359661" r="9.878736913667353"/>
  </g>
  </g>
</svg>