<?xml version="1.0" encoding="UTF-8"?>
<svg id="Layer_1" data-name="Layer 1" xmlns="http://www.w3.org/2000/svg" width="31.713491271082603" height="50.039618671835342" viewBox="0 0 31.713491271082603 50.039618671835342">
  <defs>
    <style>
      .cls-1 {
        fill: none;
        stroke: #1565C0;
        stroke-miterlimit: 10;
        stroke-width: 1px;
      }
    </style>
  </defs>
  <g transform="scale(-1,1) translate(-31.713491271082603,0)">
  <path class="cls-1" d="m14.434553454937486,22.962506138492245c0-1.570911575861828,1.273475447938836-2.844387023797026,2.844387023804302-2.844387023797026h.000005688776582c1.570911575865466,0,2.84438702380794,1.273475447935198,2.84438702380794,2.844387023797026v6.933155490110948"/>
  <path class="cls-1" d="m20.12333319132631,24.151585819674438c0-1.570911575861828,1.273475447938836-2.844387023800664,2.844387023804302-2.844387023800664h.00000568878022c1.570911575861828,0,2.844387023798845,1.273475447938836,2.844387023798845,2.844387023800664v6.323890916108212"/>
  <path class="cls-1" d="m25.812112869733028,26.008829100921503c-.000000015235855-1.570911618950049,1.27347546283454-2.844387110177195,2.844387081786408-2.844387111166725h.000005690653779c1.570911672763032.000000001822627,2.844387215704046,1.273475543192035,2.844387203713268,2.844387227189145l-.000000109568646,14.356618295772932c-.0000000398868,5.225482342037139-4.236090464099107,9.461572733922367-9.461572806139884,9.461572733922367h-6.134785772630494c-6.65356501469978,0-11.488998141643606-5.61474812652159-11.488998141643606-10.560580751916859v-3.749947920285194c0-2.149149005610525,1.567630742072652-3.977037860924611,3.691675416903308-4.304567504892475l.6385622857415-.098466892235592.000000039988663-19.523296327042772c.000000003215973-1.570911553073529,1.273475430745748-2.844386982334981,2.844386983822915-2.844386987701h.000005688774763c1.570911477379923-.000000005362381,2.844386852781099,1.273475352834794,2.844386868635411,2.844386830220174l.000000155167072,17.696236361818592"/>
  <path class="cls-1" d="m8.745267939133555,19.493795111166037c-3.237808117890381-1.165621856765938-5.552870528190397-4.264272213946242-5.552870528190397-7.903634368791245C3.192397410943158,6.952204122002513,6.952204121987961,3.192397410954072,11.59016074236024,3.192397410954072c4.637956620365003,0,8.397763331404349,3.759806711048441,8.397763331404349,8.39776333142072,0,3.639459463054664-2.315186210873435,6.738178213250649-5.553130244865315,7.903727862820233"/>
  <path class="cls-1" d="m8.745798756963268,22.609287471417701C3.838564217223393,21.346266279017073.21259842519612,16.891658354570609.21259842519612,11.590160742374792.21259842519612,5.306506584694944,5.306506584682211.21259842519612,11.59016074236024.21259842519612c6.283654157663477,0,11.377562317162301,5.093908159498824,11.377562317162301,11.377562317178672,0,3.602427193523908-1.674237198463743,6.813815337172855-4.287052409024909,8.898505244553235"/>
  <line class="cls-1" x1="8.745773718548662" y1="31.113457177309101" x2="8.745773718548662" y2="34.508368100474399"/>
  </g>
</svg>
