<?xml version="1.0" encoding="UTF-8"?>
<svg id="Layer_1" data-name="Layer 1" xmlns="http://www.w3.org/2000/svg" width="50.039618671835342" height="49.322647258224606" viewBox="0 0 50.039618671835342 49.322647258224606">
  <defs>
    <style>
      .cls-1 {
        fill: none;
        stroke: #1565C0;
        stroke-miterlimit: 10;
        stroke-width: 1px;
      }
    </style>
  </defs>
  <g transform="scale(-1,1) translate(-50.039618671835342,0)">
  <g>
    <rect class="cls-1" x=".21259842519612" y="35.200803409081345" width="49.614421821443102" height="13.909245423947141" rx="1.577337109942164" ry="1.577337109942164"/>
    <circle class="cls-1" cx="7.238918278679193" cy="42.155426121051278" r="2.628895183397617"/>
    <line class="cls-1" x1="9.867813462062259" y1="42.155426121042183" x2="26.979531199745907" y2="42.155426121042183"/>
    <g>
      <circle class="cls-1" cx="31.149914922274547" cy="38.595901447891265" r=".776719031459379"/>
      <circle class="cls-1" cx="34.709439595436379" cy="38.595901447891265" r=".776719031459834"/>
      <circle class="cls-1" cx="41.828488941770956" cy="38.595901447891265" r=".7767190314662"/>
      <circle class="cls-1" cx="38.268964268609125" cy="38.595901447891265" r=".776719031465746"/>
      <circle class="cls-1" cx="31.149914922274547" cy="42.155426121048549" r=".776719031459379"/>
      <circle class="cls-1" cx="34.709439595436379" cy="42.155426121048549" r=".776719031459834"/>
      <circle class="cls-1" cx="41.828488941770956" cy="42.155426121048549" r=".7767190314662"/>
      <circle class="cls-1" cx="38.268964268609125" cy="42.155426121048549" r=".776719031465746"/>
      <circle class="cls-1" cx="31.149914922274547" cy="45.714950794226752" r=".776719031452558"/>
      <circle class="cls-1" cx="34.709439595436379" cy="45.714950794226752" r=".776719031453013"/>
      <circle class="cls-1" cx="41.828488941770956" cy="45.714950794226752" r=".776719031459379"/>
      <circle class="cls-1" cx="38.268964268609125" cy="45.714950794226752" r=".776719031458924"/>
      <circle class="cls-1" cx="45.388013614934607" cy="38.595901447891265" r=".776719031465746"/>
      <circle class="cls-1" cx="45.388013614934607" cy="42.155426121048549" r=".776719031460289"/>
      <circle class="cls-1" cx="45.388013614934607" cy="45.714950794215838" r=".776719031458924"/>
    </g>
  </g>
  <g>
    <rect class="cls-1" x=".21259842519612" y="17.706700917138733" width="49.614421821443102" height="13.909245423925313" rx="1.577337109920336" ry="1.577337109920336"/>
    <circle class="cls-1" cx="7.238918278679193" cy="24.661323629107756" r="2.628895183396253"/>
    <line class="cls-1" x1="9.867813462062259" y1="24.661323629103208" x2="26.979531199745907" y2="24.661323629103208"/>
    <g>
      <circle class="cls-1" cx="31.149914922274547" cy="21.101798955935919" r=".776719031451194"/>
      <circle class="cls-1" cx="34.709439595436379" cy="21.101798955935919" r=".776719031451648"/>
      <circle class="cls-1" cx="41.828488941770956" cy="21.101798955935919" r=".776719031458015"/>
      <circle class="cls-1" cx="38.268964268609125" cy="21.101798955935919" r=".77671903145756"/>
      <circle class="cls-1" cx="31.149914922274547" cy="24.661323629096842" r=".776719031453013"/>
      <circle class="cls-1" cx="34.709439595436379" cy="24.661323629096842" r=".776719031453467"/>
      <circle class="cls-1" cx="41.828488941770956" cy="24.661323629096842" r=".776719031459834"/>
      <circle class="cls-1" cx="38.268964268609125" cy="24.661323629096842" r=".776719031459379"/>
      <circle class="cls-1" cx="31.149914922274547" cy="28.220848302271406" r=".776719031455286"/>
      <circle class="cls-1" cx="34.709439595436379" cy="28.220848302271406" r=".776719031455741"/>
      <circle class="cls-1" cx="41.828488941770956" cy="28.220848302271406" r=".776719031462108"/>
      <circle class="cls-1" cx="38.268964268609125" cy="28.220848302271406" r=".776719031461653"/>
      <circle class="cls-1" cx="45.388013614934607" cy="21.101798955935919" r=".77671903145756"/>
      <circle class="cls-1" cx="45.388013614934607" cy="24.661323629096842" r=".776719031453922"/>
      <circle class="cls-1" cx="45.388013614934607" cy="28.220848302265949" r=".77671903144801"/>
    </g>
  </g>
  <g>
    <rect class="cls-1" x=".21259842519612" y=".21259842519612" width="49.614421821443102" height="13.909245423918037" rx="1.57733710991306" ry="1.57733710991306"/>
    <circle class="cls-1" cx="7.238918278679193" cy="7.167221137149681" r="2.628895183389432"/>
    <line class="cls-1" x1="9.867813462062259" y1="7.167221137153319" x2="26.979531199745907" y2="7.167221137153319"/>
    <g>
      <circle class="cls-1" cx="31.149914922274547" cy="3.607696463989669" r=".776719031453013"/>
      <circle class="cls-1" cx="34.709439595436379" cy="3.607696463989669" r=".776719031453467"/>
      <circle class="cls-1" cx="41.828488941770956" cy="3.607696463989669" r=".776719031459834"/>
      <circle class="cls-1" cx="38.268964268609125" cy="3.607696463989669" r=".776719031459379"/>
      <circle class="cls-1" cx="31.149914922274547" cy="7.167221137149681" r=".776719031451648"/>
      <circle class="cls-1" cx="34.709439595436379" cy="7.167221137149681" r=".776719031452103"/>
      <circle class="cls-1" cx="41.828488941770956" cy="7.167221137149681" r=".77671903145847"/>
      <circle class="cls-1" cx="38.268964268609125" cy="7.167221137149681" r=".776719031458015"/>
      <circle class="cls-1" cx="31.149914922274547" cy="10.726745810312423" r=".776719031452558"/>
      <circle class="cls-1" cx="34.709439595436379" cy="10.726745810312423" r=".776719031453013"/>
      <circle class="cls-1" cx="41.828488941770956" cy="10.726745810312423" r=".776719031459379"/>
      <circle class="cls-1" cx="38.268964268609125" cy="10.726745810312423" r=".776719031458924"/>
      <circle class="cls-1" cx="45.388013614934607" cy="3.607696463989669" r=".776719031459379"/>
      <circle class="cls-1" cx="45.388013614934607" cy="7.167221137149681" r=".776719031452558"/>
      <circle class="cls-1" cx="45.388013614934607" cy="10.726745810312423" r=".776719031453467"/>
    </g>
  </g>
  <g>
    <g>
      <line class="cls-1" x1="5.391879529162907" y1="17.706700917138733" x2="5.391879529162907" y2="14.121843849114157"/>
      <line class="cls-1" x1="9.514465157388258" y1="14.121843849114157" x2="9.514465157388258" y2="17.706700917138733"/>
    </g>
    <g>
      <line class="cls-1" x1="40.525153514425256" y1="17.706700917138733" x2="40.525153514425256" y2="14.121843849114157"/>
      <line class="cls-1" x1="44.647739142654245" y1="14.121843849114157" x2="44.647739142654245" y2="17.706700917138733"/>
    </g>
  </g>
  <g>
    <g>
      <line class="cls-1" x1="5.391879529162907" y1="35.200803409081345" x2="5.391879529162907" y2="31.615946341064046"/>
      <line class="cls-1" x1="9.514465157388258" y1="31.615946341064046" x2="9.514465157388258" y2="35.200803409081345"/>
    </g>
    <g>
      <line class="cls-1" x1="40.525153514425256" y1="35.200803409081345" x2="40.525153514425256" y2="31.615946341064046"/>
      <line class="cls-1" x1="44.647739142654245" y1="31.615946341064046" x2="44.647739142654245" y2="35.200803409081345"/>
    </g>
  </g>
  </g>
</svg>
