<?xml version="1.0" encoding="UTF-8"?>
<svg id="Layer_1" data-name="Layer 1" xmlns="http://www.w3.org/2000/svg" width="46.564882919437878" height="50.073157972570698" viewBox="0 0 46.564882919437878 50.073157972570698">
  <defs>
    <style>
      .cls-1 {
        fill: none;
        stroke: #1565C0;
        stroke-miterlimit: 10;
        stroke-width: 1px;
      }
    </style>
  </defs>
  <g transform="scale(-1,1) translate(-46.564882919437878,0)">
  <path class="cls-1" d="m16.311098749316443,39.186409061709128l2.5577605210201,2.557760520994634-2.5577605210201,2.5577605210201"/>
  <path class="cls-1" d="m36.503259230794356,15.796866815482645l-2.557760521016462,2.55776052103829-2.557760521016462-2.55776052103829"/>
  <polygon class="cls-1" points=".21259842813015 18.290683103168703 10.492012230221007 24.279701085462875 20.771426032326417 18.290683103168703 20.771426032326417 6.235067852736393 10.492012230221007 .246049870424031 .21259842813015 6.235067852736393 .21259842813015 18.290683103168703"/>
  <polyline class="cls-1" points=".21259842813015 6.235067852736393 10.492012230221007 12.224085835012374 20.771426032326417 6.235067852736393"/>
  <line class="cls-1" x1="10.492012230221007" y1="12.224085835012374" x2="10.492012230221007" y2="24.279701085462875"/>
  <line class="cls-1" x1="23.666084907690674" y1="31.81592961424758" x2="23.666084907690674" y2="39.616800349103869"/>
  <line class="cls-1" x1="32.114727435913665" y1="24.766184924686968" x2="25.496801880824933" y2="28.621937394374982"/>
  <line class="cls-1" x1="42.394144431207678" y1="28.621907618005935" x2="35.77862173095491" y2="24.767555105612701"/>
  <line class="cls-1" x1="44.224912511861476" y1="39.616800349103869" x2="44.224912511861476" y2="31.81592961424758"/>
  <line class="cls-1" x1="35.776208630395558" y1="46.666574736093025" x2="42.390771209938976" y2="42.812781611643004"/>
  <line class="cls-1" x1="25.499651651072782" y1="42.81244686091668" x2="32.114781736625446" y2="46.66657062714512"/>
  <line class="cls-1" x1="35.783028845769877" y1="34.606985845282907" x2="42.393711762160819" y2="30.755452994435473"/>
  <line class="cls-1" x1="25.496799153424945" y1="30.75516916851484" x2="32.107862756649411" y2="34.606924111649278"/>
  <line class="cls-1" x1="33.945498709777894" y1="37.804944296942267" x2="33.945498709777894" y2="45.605815582646756"/>
  <polyline class="cls-1" points="18.868859270336543 41.744169582703762 10.492012230221007 41.744169582703762 10.492012230221007 27.286750517036126"/>
  <polyline class="cls-1" points="24.270192591153318 6.235067852736393 33.945498709777894 6.235067852736393 33.945498709777894 18.354627336520934"/>
  <circle class="cls-1" cx="33.945498709780622" cy="23.699536349980917" r="2.127371982368913"/>
  <circle class="cls-1" cx="44.224912511868752" cy="29.688554332279637" r="2.127371982367094"/>
  <circle class="cls-1" cx="44.224912511868752" cy="41.744169582704671" r="2.127371982358"/>
  <circle class="cls-1" cx="23.666084907690674" cy="29.688554332279637" r="2.127371982376189"/>
  <circle class="cls-1" cx="23.666084907690674" cy="41.744169582704671" r="2.127371982367094"/>
  <circle class="cls-1" cx="33.945498709780622" cy="35.677572314579265" r="2.127371982363911"/>
  <circle class="cls-1" cx="33.945498709780622" cy="47.733187565008848" r="2.127371982365275"/>
  </g>
</svg>
