<?xml version="1.0" encoding="UTF-8"?>
<svg id="Layer_1" data-name="Layer 1" xmlns="http://www.w3.org/2000/svg" width="49" height="48.725597599828689" viewBox="0 0 49 48.725597599828689">
  <defs>
    <style>
      .cls-1 {
        fill: none;
        stroke: #1565C0;
        stroke-miterlimit: 10;
      }
    </style>
  </defs>
  <g transform="scale(-1,1) translate(-49,0)">
  <polyline class="cls-1" points="24.5 12.5 12.5 12.5 12.5 .5 24.5 .5"/>
  <line class="cls-1" x1="24.5" y1=".5" x2="12.5" y2="12.5"/>
  <line class="cls-1" x1="12.5" y1=".5" x2="24.5" y2="12.5"/>
  <polyline class="cls-1" points="12.5 12.5 .5 12.5 .5 .5 12.5 .5"/>
  <line class="cls-1" x1="12.5" y1=".5" x2=".5" y2="12.5"/>
  <line class="cls-1" x1=".5" y1=".5" x2="12.5" y2="12.5"/>
  <polyline class="cls-1" points="36.5 12.5 24.5 12.5 24.5 .5 36.5 .5"/>
  <line class="cls-1" x1="36.5" y1=".5" x2="24.5" y2="12.5"/>
  <line class="cls-1" x1="24.5" y1=".5" x2="36.5" y2="12.5"/>
  <rect class="cls-1" x="36.5" y=".5" width="12" height="12"/>
  <line class="cls-1" x1="48.5" y1=".5" x2="36.5" y2="12.5"/>
  <line class="cls-1" x1="36.5" y1=".5" x2="48.5" y2="12.5"/>
  <path class="cls-1" d="m20.414902791068016,22.157307327319359l3.738647864447557,2.409434520470313-8.011690422663378,12.43150168009015-6.155763041570026-3.967185065290323c-1.326027327224438-.85458062195903-1.708210394295747-2.622312636640345-.85362977233126-3.948339963870239l3.396667390114089-5.270507737968728"/>
  <path class="cls-1" d="m12.49998289501309,20.211430023939101l-1.245870736309371-.802922358279829c-.688168067932565-.443501490079143-1.605567506227089-.245160040049086-2.049068996308051.443008027879841l-3.53237893557889,5.481087305641267c-.443501490077324.688168067928927-.245160040047267,1.605567506228908.443008027885298,2.04906899630987l2.90606532781203,1.872862696200173"/>
  <path class="cls-1" d="m16.75050118368199,36.053833471620237c1.897056315447117-1.094564608099972,3.519670359255542-2.558374819851451,4.718988910772168-4.419321736360871,1.199475818571955-1.861190943129259,1.862266599131544-3.94357540629062,2.075419610233439-6.123359831210109"/>
  <path class="cls-1" d="m12.499999993170661,12.500000000000114h7.914893619989812v10.83938093770276c0,2.184172165080447-1.773270680551295,3.957442845631743-3.957442845631743,3.957442845631743h-.000008039473244c-2.184172103957561,0-3.957442734884825-1.773270630927264-3.957442734884825-3.957442734884825v-10.839381048449678h0Z"/>
  <circle class="cls-1" cx="16.457442851065935" cy="23.339373024880388" r="1.641215214628801"/>
  <line class="cls-1" x1="48.5" y1="30.782492687840204" x2="23.544909704687598" y2="25.511151904049257"/>
  <line class="cls-1" x1="23.043073432963865" y1="48.5" x2="16.75050118368199" y2="36.053833471620237"/>
  <line class="cls-1" x1="24.5" y1="33.705320169969127" x2="39.034828278458008" y2="43.637249322749994"/>
  <line class="cls-1" x1="34.353977214626866" y1="33.424483365299238" x2="39.375253810372669" y2="35.464762701380096"/>
  <line class="cls-1" x1="23.544909704687598" y1="39.381930173809451" x2="27.673126150797543" y2="44.062781237638774"/>
  </g>
</svg>