<svg width="640" height="480" viewBox="0 0 640 480" fill="none" xmlns="http://www.w3.org/2000/svg">
  <path d="M184 194C184 177.431 197.431 164 214 164H374C390.569 164 404 177.431 404 194V304C404 320.569 390.569 334 374 334H214C197.431 334 184 320.569 184 304V194Z" fill="#DDE7F2"/>
  <path d="M404 221L502 180C517.822 173.389 535 185.012 535 202.16V295.84C535 312.988 517.822 324.611 502 318L404 277V221Z" fill="#C9D8E8"/>
  <path d="M240 164V138C240 124.745 250.745 114 264 114H334C347.255 114 358 124.745 358 138V164" stroke="#B8CBE0" stroke-width="28" stroke-linecap="round"/>
  <circle cx="292" cy="249" r="52" fill="#F7FAFD"/>
  <circle cx="292" cy="249" r="29" fill="#B8CBE0"/>
  <path d="M188 366H444" stroke="#DDE7F2" stroke-width="18" stroke-linecap="round"/>
  <path d="M238 398H394" stroke="#E8EEF6" stroke-width="14" stroke-linecap="round"/>
  <path d="M154 211C154 198.85 144.15 189 132 189C119.85 189 110 198.85 110 211C110 223.15 119.85 233 132 233C144.15 233 154 223.15 154 211Z" fill="#C9D8E8"/>
  <path d="M151 271C151 261.611 143.389 254 134 254C124.611 254 117 261.611 117 271C117 280.389 124.611 288 134 288C143.389 288 151 280.389 151 271Z" fill="#E0E8F2"/>
</svg>
