<svg width="53" height="51" viewBox="0 0 53 51" fill="none" xmlns="http://www.w3.org/2000/svg">
<path d="M4.13158 30.8333V38.8333C4.13158 41.7789 6.48798 44.1667 9.39474 44.1667H12.0263M12.0263 44.1667C12.0263 41.9575 13.7936 40.1667 15.9737 40.1667C18.1538 40.1667 19.9211 41.9575 19.9211 44.1667M12.0263 44.1667V45.5C12.0263 47.7091 13.7936 49.5 15.9737 49.5C18.1538 49.5 19.9211 47.7091 19.9211 45.5V44.1667M35.7105 44.1667H19.9211M35.7105 44.1667C35.7105 41.9575 37.4778 40.1667 39.6579 40.1667C41.838 40.1667 43.6053 41.9575 43.6053 44.1667M35.7105 44.1667V45.5C35.7105 47.7091 37.4778 49.5 39.6579 49.5C41.838 49.5 43.6053 47.7091 43.6053 45.5V44.1667M38.3421 22.8333H42.5355C46.2357 22.8333 49.4395 25.4376 50.2422 29.0979L51.312 33.9761C51.437 34.5459 51.5 35.1278 51.5 35.7115V38.8333C51.5 41.7789 49.1436 44.1667 46.2368 44.1667H43.6053M38.3421 22.8333V20.1667C38.3421 16.6834 36.1452 13.7201 33.0789 12.6219M38.3421 22.8333V38.8333M14.6579 8.16667V12.9872L17.2895 14.8333M25.1842 13.5C25.1842 6.87258 19.8823 1.5 13.3421 1.5C6.80189 1.5 1.5 6.87258 1.5 13.5C1.5 20.1274 6.80189 25.5 13.3421 25.5C19.8823 25.5 25.1842 20.1274 25.1842 13.5Z" stroke="#3AA15B" stroke-width="3" stroke-linecap="round" stroke-linejoin="round"/>
</svg>
