<svg width="50" height="48" viewBox="0 0 50 48" fill="none" xmlns="http://www.w3.org/2000/svg">
<path d="M28.125 38H12.5C9.04822 38 6.25 35.3137 6.25 32V16C6.25 12.6863 9.04822 10 12.5 10H35.4167C38.8684 10 41.6667 12.6863 41.6667 16V19M41.6667 19H34.375C31.4985 19 29.1667 21.2386 29.1667 24C29.1667 26.7614 31.4985 29 34.375 29M41.6667 19H43.4641C43.622 19 43.75 19.1229 43.75 19.2745V28.7255M35.4375 24H35.4167M45.8333 34.0779L39.3916 40.5028C38.5721 41.3203 37.2092 41.3203 36.3896 40.5028L34.375 38.4935" stroke="#3AA15B" stroke-width="3" stroke-linecap="round" stroke-linejoin="round"/>
</svg>
