<svg xmlns="http://www.w3.org/2000/svg" xmlns:xlink="http://www.w3.org/1999/xlink" width="1366" zoomAndPan="magnify" viewBox="430 180 170 170" height="768" preserveAspectRatio="xMidYMid meet" version="1.0"><defs><g/><clipPath id="320f7ddc2a"><rect x="0" width="97" y="0" height="164"/></clipPath></defs><g transform="matrix(1, 0, 0, 1, 463, 204)"><g clip-path="url(#320f7ddc2a)"><g fill="#0e2e5b" fill-opacity="1"><g transform="translate(0.723634, 122.973115)"><g><path d="M 54.859375 -47.21875 L 30.4375 -47.21875 L 30.4375 -18.234375 L 54.859375 -18.234375 C 59.097656 -18.234375 62.625 -19.613281 65.4375 -22.375 C 68.257812 -25.144531 69.671875 -28.59375 69.671875 -32.71875 C 69.671875 -36.84375 68.257812 -40.289062 65.4375 -43.0625 C 62.625 -45.832031 59.097656 -47.21875 54.859375 -47.21875 Z M 82.53125 -99.625 L 82.53125 -81.40625 L 30.4375 -81.40625 L 30.4375 -65.4375 L 54.859375 -65.4375 C 61.265625 -65.4375 67.070312 -63.941406 72.28125 -60.953125 C 77.488281 -57.972656 81.613281 -54.015625 84.65625 -49.078125 C 87.695312 -44.140625 89.21875 -38.6875 89.21875 -32.71875 C 89.21875 -26.863281 87.695312 -21.4375 84.65625 -16.4375 C 81.613281 -11.445312 77.488281 -7.457031 72.28125 -4.46875 C 67.070312 -1.488281 61.265625 0 54.859375 0 L 10.90625 0 L 10.90625 -99.625 Z M 82.53125 -99.625 "/></g></g></g></g></g></svg>

